<svg width="57" height="21" viewBox="0 0 57 21" fill="none" xmlns="http://www.w3.org/2000/svg">
<path d="M28.3202 9.64584C31.7925 7.85243 32.306 2 27.367 2H21.6473L19.5336 6.7197H20.5283L18 17.9997H24.6315C29.4695 18.0468 31.6452 11.5596 28.3202 9.64584ZM24.6315 13.8936H22.9736L23.5953 11.3451H25.1702C27.0353 11.7697 25.8749 13.988 24.6315 13.8936ZM25.6262 8.46589H24.2171L24.6315 6.24766H26.2064C27.7282 6.67247 26.4138 8.56035 25.6262 8.46589Z" fill="#005FAF" stroke="#005FAF"/>
<path d="M44.0218 8.26943L46.281 3.79071L43.224 2L42.8253 2.55265C41.1762 1.57232 32.5407 2.9259 32 12.4922C32.3232 20.5172 40.3306 19.0737 41.116 18.5645L43.3183 13.4519C41.1613 15.0473 36.7449 15.8133 36.558 11.0206C36.9454 7.06845 41.1005 5.59253 44.0218 8.26943ZM55.2953 2.0847H48.3501L46.1425 6.7824H47.2766L42.0426 18.5013H47.1088L48.149 15.6747H51.2588L51.3364 18.5013H56L55.2953 2.0847ZM49.5579 11.869L51.2587 7.30992L51.3362 11.869H49.5579Z" fill="#005FAF" stroke="#005FAF"/>
<path d="M12.7863 17.423L13.051 17.3348L12.7607 16.8744L12.7863 17.423ZM8.4399 17.3446L8.3887 17.7562C8.52046 17.7414 8.68269 17.8717 8.74736 17.5798C8.7425 17.3522 8.59156 17.3397 8.4399 17.3446ZM10.5491 17.3348C10.5272 17.2228 10.4456 17.1402 10.2417 17.2173L10.31 17.6385C10.4776 17.5959 10.5637 17.4822 10.5491 17.3348ZM5.78429 16.9901L5.70276 17.3644C5.8338 17.3706 5.98728 17.4926 6.07428 17.2708C6.0801 17.1318 6.08508 16.9934 5.78429 16.9901ZM10.3698 17.9522L10.4296 18.3834C10.5695 18.3875 10.6972 18.291 10.6602 18.0895C10.6245 17.8957 10.4827 17.9263 10.3698 17.9522Z" fill="#005FAF"/>
<path d="M15.9229 1.96941C11.4012 -0.673972 6.0011 -0.600455 1.69283 1.85412C-0.528769 6.3421 -0.599506 12.6215 1.69283 18.1831C6.43924 20.9394 11.6888 20.7578 15.9563 18.2984C17.9619 13.5765 18.2932 7.89457 15.9229 1.96941ZM8.28628 15.3705L8.01826 15.374C7.95189 14.5241 7.77486 13.8098 7.39509 13.2632C5.65361 10.7571 2.09371 12.6439 3.00844 8.38482C3.48406 6.20746 8.9092 4.92329 8.28628 15.3705ZM3.01487 11.164C3.39512 12.0521 5.77749 12.1976 6.60449 12.8775C7.91634 13.9559 7.72803 15.3744 7.72803 15.3744H7.41863C6.80954 13.232 5.10009 14.9283 3.73085 14.3513C2.87121 14.0005 2.24708 12.4796 3.01487 11.164ZM7.35542 18.1481L7.48354 16.982L7.71408 17.0017L7.61155 18.2853C7.50818 18.8507 6.77351 18.7751 6.68081 18.2363L6.80032 16.9037L7.07356 16.9528L6.95405 18.0697C6.96922 18.4394 7.29233 18.4173 7.35542 18.1481ZM6.12862 18.4666L5.86582 18.3938C5.89664 18.1445 6.15423 17.6374 5.64511 17.6374L5.5034 18.3002L5.21341 18.2378L5.52148 16.6468C6.27447 16.7409 6.34035 16.9813 6.35527 17.2395C6.32555 17.4397 6.27908 17.5795 6.12875 17.6138C6.30468 17.797 6.13081 18.181 6.12862 18.4666ZM4.45945 16.6845C4.38702 16.7948 4.24203 17.18 4.22104 17.4871C4.19871 17.8124 4.4711 17.7439 4.53893 17.7059C4.59365 17.6754 4.63429 17.4141 4.63429 17.4141L4.44356 17.3411L4.50714 17.1224L4.93641 17.2866L4.72978 18.1075L4.55494 18.0526L4.57084 17.9249C4.35681 18.0369 3.96502 17.9529 3.91904 17.6696C3.87305 17.4419 4.01234 16.7518 4.23693 16.4293C4.45521 16.1157 4.98701 16.4222 4.99999 16.6117C5.01285 16.8005 4.94794 17.013 4.94794 17.013L4.74774 16.9697C4.74774 16.9697 4.75999 16.9014 4.77747 16.7939C4.79591 16.68 4.53711 16.566 4.45945 16.6845ZM8.36308 18.0206L8.31188 18.7262L8.09846 18.7165L8.17526 17.0408C8.70828 17.0535 9.01379 17.1381 9.0036 17.57C8.97181 18.1601 8.5554 18.0274 8.36308 18.0206ZM8.8944 15.3743H8.53732C8.50565 13.9232 8.7488 11.2689 8.08438 9.31561C7.58098 7.83484 6.30698 7.16874 6.02464 5.97257C5.57765 4.07925 6.33841 2.03068 8.8944 1.87292C11.1103 2.13399 11.7911 4.09707 11.4131 5.92481C10.7633 7.75227 10.1133 7.48968 9.30414 9.31004C8.64324 11.2614 8.89489 13.8179 8.8944 15.3743ZM12.8546 18.0599L12.6069 18.1579L12.53 16.4724L12.8204 16.3843L13.5377 17.7757L13.3412 17.9227L13.1021 17.5309L12.8288 17.6484L12.8546 18.0599ZM9.96552 15.3743H9.67991C9.91529 11.6475 13.9963 12.4572 14.3693 11.164C15.0143 12.446 14.7824 13.5271 14.1089 14.0812C12.4352 15.4588 10.8304 13.0617 9.96552 15.3743ZM11.4799 17.2565L11.608 18.0306C11.6877 18.209 11.7418 18.176 11.8641 18.158C12.006 18.0402 11.9764 17.9255 11.9496 17.7758L12.1972 17.7367C12.2617 18.2975 12.0294 18.3548 11.8556 18.3932C11.483 18.4238 11.41 18.3406 11.3092 17.7857C11.2504 17.3108 11.149 16.8093 11.497 16.7176C12.0682 16.6175 12.0345 16.9126 12.0862 17.1193L11.8385 17.1685C11.799 16.9908 11.7421 16.9204 11.6165 16.9335C11.5021 16.9937 11.4551 17.0913 11.4799 17.2565ZM10.959 18.0599C10.9709 18.3039 10.8987 18.466 10.7626 18.5205L10.1819 18.6576L9.95133 17.0408C10.0705 17.0185 10.6547 16.7729 10.7967 17.2174C10.8667 17.4887 10.7941 17.5861 10.7112 17.7072C10.8684 17.7651 10.9214 17.9055 10.959 18.0599ZM9.46782 9.94621C10.7615 5.76636 13.7216 6.505 14.3781 8.38496C15.2776 12.1573 12.3814 11.1227 10.5262 12.6696C9.82502 13.3694 9.45605 14.1723 9.45059 15.3893H9.1327C9.11365 12.938 9.07907 11.2021 9.46782 9.94621Z" fill="#005FAF"/>
</svg>
