<svg width="66" height="19" viewBox="0 0 66 19" fill="none" xmlns="http://www.w3.org/2000/svg">
<path fill-rule="evenodd" clip-rule="evenodd" d="M22.5439 0C23.3082 0.523402 24.0856 1.31714 24.0856 2.08344V15.5974C24.0856 16.3545 23.3712 17.4257 22.7217 17.8526C25.0145 17.8526 27.3084 17.8526 29.6012 17.8526C34.0526 17.6686 36.752 16.0618 37.0751 12.6917C37.3008 10.3288 36.0527 8.49131 32.9845 7.45467C34.5151 6.87232 35.3383 5.60396 35.4135 3.85488C35.5425 0.84659 32.0413 0 29.839 0H22.5439V0ZM26.8134 7.23616V1.60171H28.9253C31.3198 1.60171 32.4489 2.77657 32.4479 4.54801C32.4479 6.31944 30.8279 7.23616 28.8064 7.23616H26.8134ZM29.0646 16.132H26.8134V8.83685H29.3644C33.1634 8.83685 34.3128 11.1215 34.1085 12.9885C33.9053 14.8565 32.3005 16.132 29.0646 16.132ZM43.1324 0H39.3944C40.2257 0.924846 40.5875 1.41064 40.5875 2.84466V15.1604C40.5875 16.5781 39.9594 17.4491 39.057 18.065H44.0318C43.293 17.6137 42.4982 16.7285 42.4982 15.1268V4.24819C45.0105 7.60407 47.5239 10.961 50.0362 14.3178C51.4611 16.1818 53.1126 17.7621 55.0385 19V2.77962C55.0385 1.15555 55.694 0.535598 56.5701 0H51.7202C52.5994 0.652474 53.0658 1.38829 53.0658 2.71559V13.5769L43.1324 0V0ZM59.3233 18.065C60.3294 17.3973 60.8406 16.6137 60.8406 15.5974V2.6973C60.8406 1.17283 60.4006 0.82728 59.5367 0H65.2779C64.287 0.557957 63.5918 1.69725 63.5918 2.6973V15.5618C63.5918 16.5486 64.1762 17.4532 64.9689 18.065H59.3233Z" fill="#007697"/>
<path fill-rule="evenodd" clip-rule="evenodd" d="M0 0H5.54196C5.25231 0.496978 5.03381 1.61391 5.5938 4.12217C6.09179 6.35197 7.53191 8.67729 9.03504 10.5158L7.14672 12.0657L0 3.08655V0L0 0ZM8.09291 0H17.8495V2.36395C17.0944 1.92287 15.7183 1.49703 13.6979 2.305C10.4376 3.60995 10.1581 7.42926 10.1581 7.42926C8.3541 5.25028 7.16807 1.67794 8.09291 0V0ZM17.8495 5.50029V12.5373C15.633 13.3788 12.523 11.1906 11.7415 8.59294C10.6093 4.82851 13.2781 3.4697 15.1878 3.84269C16.6157 4.12116 17.444 4.97181 17.8495 5.50029ZM17.8495 13.6918V17.8505H11.8695L13.0688 16.8657C12.2862 16.9613 10.7496 16.5934 10.0016 15.6533L7.89676 13.0088L9.82065 11.4285C11.0036 12.7324 12.1297 13.6684 12.7659 13.9499C14.1298 14.5516 15.6655 14.8412 17.8495 13.6918ZM8.53094 17.8505H1.99909L6.06841 14.5089C6.40177 14.9276 6.72292 15.3321 7.02883 15.7153C7.62846 16.4694 8.13153 17.2123 8.53094 17.8505ZM0.100615 17.8505H0V6.8835C1.55394 8.83686 3.53982 11.3319 5.31837 13.5668L0.100615 17.8505Z" fill="#EC6722"/>
</svg>
