<svg width="149" height="175" viewBox="0 0 149 175" fill="none" xmlns="http://www.w3.org/2000/svg">
<path d="M1.06764 101.479C0.604262 96.1001 0.75482 90.6857 1.5164 85.3407C1.98243 82.2166 2.31038 79.0752 2.82819 75.9684C4.59364 65.7219 7.43427 55.69 11.303 46.039C13.7152 39.9787 17.0642 34.3349 21.2277 29.3138C25.1314 24.5185 29.4267 20.0558 34.0693 15.9716C39.9753 10.7215 46.854 6.68103 54.3157 4.07925C58.335 2.77751 62.485 1.92087 66.6913 1.52473C68.9869 1.26583 71.2653 0.989661 73.5954 0.8861C75.1718 0.837045 76.7493 0.935279 78.3075 1.17952C80.115 1.42036 81.9031 1.78952 83.6582 2.28418C88.2741 3.59448 92.8 5.20307 97.2075 7.09981C100.684 8.69246 103.883 10.831 106.683 13.4343C108.634 15.1604 110.498 17.059 112.431 18.8541C116.169 22.3524 119.317 26.4326 121.752 30.9363C125.586 37.5964 128.949 44.5176 131.814 51.6486C131.814 51.8385 131.952 52.0111 132.039 52.201C134.112 56.5323 135.749 61.0596 136.923 65.7158C137.004 66.0265 137.108 66.3372 137.234 66.6478C139.102 71.498 140.528 76.5064 141.497 81.6125C143.431 90.2772 145.346 98.9419 147.245 107.607C148.661 113.904 148.333 120.468 146.296 126.593C145.314 129.798 144.067 132.915 142.568 135.913C142.136 136.725 141.705 137.536 141.187 138.313C139.34 141.04 137.493 143.75 135.612 146.442C132.6 150.69 129.126 154.592 125.255 158.076C121.528 161.524 117.332 164.429 112.794 166.706C112.024 167.088 111.235 167.428 110.429 167.724C105.251 169.627 99.9056 171.037 94.4631 171.936C91.8568 172.315 89.285 173.006 86.7305 173.489C81.4173 174.444 76.0243 174.883 70.6266 174.801H69.4529C65.7655 174.841 62.0784 174.691 58.4063 174.352C52.179 173.766 46.0877 172.175 40.3693 169.64C35.8722 167.759 31.6278 165.324 27.7348 162.391C22.2752 158.256 17.4941 153.294 13.5641 147.685C12.3559 145.959 11.2685 143.991 10.2501 142.075C7.52865 137.188 5.51223 131.941 4.26079 126.489C3.55048 123.195 3.02037 119.865 2.67284 116.513C2.18955 111.525 1.46462 106.519 1.06764 101.479Z" fill="#E9D9D8"/>
<path d="M147.262 107.727C145.352 99.0622 143.442 90.3975 141.532 81.7329C140.549 76.6282 139.117 71.6205 137.251 66.7682C137.136 66.4575 137.033 66.1468 136.941 65.8361C135.744 61.1775 134.084 56.6501 131.987 52.3213C131.901 52.1315 131.832 51.9589 131.763 51.769C128.893 44.6397 125.531 37.7189 121.7 31.0566C119.262 26.5551 116.115 22.4755 112.379 18.9744C110.446 17.2484 108.582 15.3153 106.632 13.5547C103.831 10.9514 100.632 8.81282 97.1557 7.22017C92.768 5.28448 88.2594 3.63554 83.6582 2.28372C81.8902 1.78995 80.0911 1.41514 78.273 1.16181C76.7139 0.926042 75.1371 0.827855 73.5609 0.86838C71.2653 0.971942 68.9869 1.24811 66.6568 1.50701C62.4615 1.91126 58.3232 2.77366 54.3157 4.0788C46.85 6.67195 39.9698 10.7133 34.0693 15.9711C29.4267 20.0553 25.1314 24.518 21.2277 29.3134C17.0702 34.3387 13.7218 39.9815 11.303 46.0386C7.43427 55.6895 4.59364 65.7214 2.82819 75.9679C2.31038 79.0748 1.98243 82.2162 1.5164 85.3403C0.75482 90.6853 0.604262 96.0996 1.06764 101.479C1.46462 106.519 2.18955 111.524 2.67284 116.564C3.02223 119.899 3.55233 123.212 4.26079 126.489C5.51434 132.008 7.54852 137.32 10.3019 142.265C11.3375 144.181 12.4077 146.062 13.6159 147.874C17.5507 153.479 22.3311 158.44 27.7866 162.58C31.6796 165.514 35.924 167.949 40.4211 169.829C46.1395 172.364 52.2308 173.955 58.4581 174.542C62.1302 174.881 65.8173 175.031 69.5047 174.99H70.6784C76.0761 175.073 81.4691 174.633 86.7823 173.678C89.3713 173.195 91.9604 172.505 94.5149 172.125C99.9626 171.224 105.314 169.814 110.498 167.914C111.298 167.617 112.082 167.277 112.845 166.895C117.384 164.618 121.579 161.713 125.307 158.265C129.178 154.781 132.651 150.88 135.663 146.632C137.545 143.939 139.392 141.212 141.239 138.502C141.745 137.73 142.206 136.929 142.619 136.103C144.102 133.131 145.338 130.043 146.313 126.869C148.35 120.744 148.678 114.18 147.262 107.882V107.727ZM146.227 119.964C145.948 122.18 145.439 124.361 144.708 126.472C144.069 128.353 143.379 130.2 142.671 132.029C141.712 134.48 140.448 136.8 138.908 138.934C137.182 141.281 135.663 143.732 133.937 146.045C129.531 152.123 124.092 157.381 117.868 161.579C116.712 162.338 115.555 163.081 114.416 163.737C111.879 165.117 109.238 166.412 106.735 167.758C105.855 168.208 104.903 168.5 103.922 168.621C102.748 168.777 101.609 169.087 100.47 169.312C97.0176 169.985 93.4793 170.537 90.0272 171.348C83.3688 172.889 76.5447 173.597 69.7118 173.454C63.3859 173.566 57.0663 172.993 50.8636 171.745C48.3537 171.22 45.8979 170.463 43.528 169.484C40.2505 168.142 37.0624 166.591 33.983 164.841C30.5333 162.795 27.3106 160.388 24.369 157.661C20.4594 154.322 17.0629 150.425 14.289 146.097C10.3453 139.861 7.33875 133.08 5.36545 125.971C4.47328 122.264 3.89588 118.487 3.63942 114.683C3.5186 113.388 3.34599 112.076 3.20791 110.782C2.70736 106.657 2.31038 102.532 2.22408 98.3891C2.26511 88.0583 3.52814 77.7687 5.98682 67.7348C7.88311 59.615 10.4938 51.6789 13.7885 44.0191C15.705 39.6066 18.2262 35.4821 21.2794 31.7643C25.5992 26.2886 30.4373 21.2425 35.7263 16.6961C41.0531 12.1585 47.1111 8.55749 53.6425 6.04647C56.914 4.83799 60.3136 4.00981 63.7743 3.57825C67.0883 3.09496 70.4195 2.68071 73.768 2.49085C76.4026 2.35778 79.0417 2.64325 81.5869 3.3366C87.3233 4.78818 92.9069 6.78807 98.2604 9.30867C101.076 10.7603 103.668 12.6088 105.958 14.7974C107.685 16.3681 109.411 18.0079 111.137 19.6476C114.44 22.7712 117.271 26.3586 119.542 30.2972C123.043 36.3287 126.189 42.5587 128.966 48.9556C130.347 52.1487 131.676 55.3764 132.988 58.6041C133.523 59.9504 133.92 61.3485 134.352 62.712C134.904 64.4381 135.301 66.2849 135.974 67.9937C137.425 71.8113 138.58 75.7353 139.426 79.7307L145.571 107.882C146.444 111.806 146.665 115.848 146.227 119.844" fill="#D95A3F"/>
<path d="M90.3552 91.3469C89.1763 92.0901 88.2825 93.209 87.8179 94.5228C88.5295 94.573 89.2381 94.6594 89.9409 94.7817C91.6207 95.1351 93.1794 95.9204 94.4631 97.0601C95.982 98.4064 97.5009 99.7699 99.0889 101.064C99.8344 101.701 100.658 102.241 101.54 102.67C102.488 103.136 103.53 103.378 104.586 103.378C105.643 103.378 106.685 103.136 107.633 102.67C110.205 101.43 112.249 99.3117 113.398 96.6976C114.105 95.2132 114.692 93.677 115.262 92.1236C116.402 89.2412 118.051 86.5871 120.129 84.2874C120.993 83.1933 122.185 82.4039 123.529 82.0344C124.874 81.6649 126.301 81.7347 127.603 82.2335C128.934 82.6272 130.173 83.2846 131.245 84.1666C132.259 84.9996 133.205 85.9115 134.075 86.8937C138.084 91.5743 140.644 97.3193 141.446 103.429C142.646 111.653 141.889 120.045 139.236 127.921C137.838 132.047 135.598 135.838 132.66 139.054C128.459 143.708 123.618 147.741 118.282 151.033C112.114 154.946 105.575 158.241 98.7609 160.871C93.28 162.93 87.5816 164.354 81.7768 165.117C80.0508 165.342 78.3247 165.566 76.4951 165.687C74.2686 165.8 72.0367 165.638 69.8499 165.204C66.8639 164.703 63.9124 164.065 60.9436 163.478C57.06 162.787 53.1592 162.149 49.2756 161.458C44.0794 160.612 39.0476 158.958 34.3627 156.556C32.4986 155.572 30.6173 154.606 28.8049 153.536C20.0359 148.488 13.5876 140.213 10.837 130.476C8.44835 122.878 6.94255 115.031 6.34928 107.088C6.19394 104.43 5.98682 101.72 5.98682 99.0277C5.98682 96.3351 6.17668 93.2455 6.34928 90.3976C6.45284 88.3609 6.65997 86.3414 6.81531 84.3047C7.80542 73.6691 10.7301 63.3039 15.4455 53.7195C17.7093 48.8974 20.4378 44.3074 23.5923 40.0148C26.9283 35.6043 30.6669 31.5133 34.7597 27.7945C35.7781 26.8624 36.8137 25.9476 37.8148 24.9983C42.9302 20.3673 48.7583 16.5907 55.0751 13.8136C56.6803 13.0714 58.2683 12.2775 59.9252 11.6561C63.5009 10.1725 67.2041 9.01701 70.9891 8.20404C72.6981 7.90223 74.4407 7.83834 76.1672 8.01418C78.2651 8.16363 80.345 8.5045 82.3809 9.03254C85.7464 9.83396 89.0559 10.8545 92.2883 12.0876C94.2215 12.8988 96.1374 13.8136 98.0015 14.7457C99.7803 15.6319 101.36 16.871 102.644 18.3876C106.597 22.7967 109.989 27.6782 112.742 32.9208C113.418 34.2099 113.995 35.5485 114.468 36.9252C115.572 40.3772 116.487 44.0019 117.609 47.5057C119.219 52.9717 119.098 58.8017 117.264 64.1965C116.712 66.026 116.108 67.8384 115.383 69.5989C114.209 72.4016 113.621 75.4151 113.657 78.4535C113.658 81.1588 113.172 83.8423 112.224 86.3759C111.551 88.3609 110.705 90.294 109.859 92.2272C109.138 93.9111 107.938 95.3457 106.407 96.3524C105.416 97.0819 104.231 97.5008 103.002 97.5561C101.773 97.6115 100.555 97.3006 99.5031 96.6631C98.3065 95.9504 97.1537 95.1666 96.051 94.3157C95.4124 93.8496 94.8428 93.2973 94.2042 92.8313C93.1324 91.9501 91.8092 91.4305 90.4242 91.3469H90.3552ZM80.068 130.735C81.1363 130.738 82.1776 131.071 83.049 131.689C83.9204 132.307 84.5793 133.18 84.9354 134.187C85.1598 134.653 85.3842 135.119 85.6258 135.585C86.4371 137.104 87.1793 138.64 88.0768 140.107C88.3342 140.629 88.694 141.094 89.1348 141.473C89.5756 141.853 90.0884 142.14 90.6425 142.317C91.1966 142.494 91.7808 142.558 92.3601 142.505C92.9394 142.451 93.502 142.281 94.0143 142.006C94.3078 141.902 94.7048 141.747 94.9119 141.851C95.3306 142.046 95.7873 142.148 96.2495 142.148C96.7118 142.148 97.1684 142.046 97.5872 141.851C99.0167 141.355 100.417 140.778 101.781 140.124C103.145 139.486 104.474 138.761 105.786 138.001C107.098 137.242 108.686 136.275 110.118 135.274C110.2 135.241 110.274 135.191 110.335 135.128C110.397 135.064 110.444 134.989 110.475 134.906C110.506 134.823 110.519 134.735 110.514 134.647C110.509 134.559 110.486 134.473 110.446 134.394C110.142 134.369 109.836 134.369 109.531 134.394C109.083 134.394 108.634 134.584 108.185 134.653C107.736 134.722 107.495 134.757 107.305 134.411C107.115 134.066 107.305 133.652 107.615 133.376C107.926 133.1 108.237 132.892 108.513 132.616C108.666 132.411 108.799 132.191 108.91 131.96C107.941 131.932 106.976 132.109 106.079 132.478C105.947 132.492 105.814 132.492 105.682 132.478L105.113 131.546C104.532 131.429 103.929 131.496 103.387 131.736L100.228 132.841C99.115 133.215 97.9502 133.413 96.776 133.428C96.2105 133.539 95.6237 133.449 95.1186 133.171C94.6136 132.893 94.2226 132.446 94.0143 131.909C93.2549 130.39 92.4954 128.854 91.7532 127.317C90.7665 125.162 90.0867 122.878 89.7338 120.534C89.4231 118.808 89.216 117.082 88.8362 115.356C88.3357 113.043 87.7661 110.747 87.1102 108.452C86.8157 107.524 86.3361 106.666 85.7003 105.928C85.0646 105.191 84.2859 104.591 83.4114 104.163C82.5368 103.736 81.5847 103.49 80.6125 103.441C79.6403 103.392 78.6682 103.54 77.7551 103.878C74.7382 104.915 72.0313 106.696 69.8844 109.056C67.5895 111.513 65.6491 114.278 64.1195 117.272C63.8937 117.741 63.6401 118.196 63.3601 118.635C63.3601 118.774 63.0494 118.808 62.7042 118.981C63.0839 116.305 64.6373 114.303 65.7074 111.973C64.551 111.8 63.5154 111.662 62.497 111.472C59.503 110.907 56.6935 109.615 54.3157 107.71C53.3047 106.969 52.5069 105.975 52.0028 104.827C51.914 104.542 51.8618 104.246 51.8474 103.947C53.0475 105.533 54.6021 106.815 56.3869 107.692C57.8109 108.426 59.2811 109.066 60.7883 109.608C62.1726 110.019 63.5786 110.353 64.9998 110.609C65.501 110.801 66.056 110.797 66.5547 110.599C67.0534 110.401 67.4595 110.023 67.6924 109.539C67.7917 109.367 67.9073 109.206 68.0376 109.056C70.7269 105.435 74.6085 102.88 78.9979 101.841C79.4489 101.764 79.8616 101.539 80.1716 101.203C82.1565 98.9242 84.2105 96.6803 86.0746 94.2984C87.5025 92.403 89.0474 90.5986 90.7004 88.8959C91.4943 88.0244 92.2377 87.1081 92.9269 86.1516C93.0478 85.979 93.2721 85.7546 93.1168 85.6165C92.5472 85.3748 92.4091 86.3069 91.8223 85.8236C92.1847 85.0124 92.5472 84.2529 92.8579 83.4589C92.9442 83.2691 92.8579 83.0274 92.8579 82.4578C92.3401 83.062 92.0467 83.3899 91.7705 83.7524C91.4943 84.1148 91.4253 84.1839 90.4932 84.5981C90.6831 84.1321 90.7867 83.7696 90.9593 83.4417C91.2699 82.8548 91.6152 82.3025 91.9086 81.7157C92.202 81.1288 92.271 80.9907 91.9086 80.6283C91.5461 80.2658 91.1146 80.5247 90.7521 81.008C90.3897 81.4913 89.8201 82.268 89.3195 82.8894C89.0702 83.1329 88.7986 83.3525 88.5083 83.5452C88.8017 81.9746 89.7856 80.9907 90.0272 79.5063C89.6641 79.5946 89.3154 79.734 88.9916 79.9206C88.1631 80.68 87.2656 81.4395 86.5751 82.2507C86.1264 82.7168 85.7639 83.2691 85.3324 83.7696C85.2701 83.8586 85.1896 83.9331 85.096 83.9883C85.0025 84.0434 84.8983 84.0779 84.7903 84.0894C84.6824 84.1008 84.5732 84.089 84.4702 84.0547C84.3672 84.0204 84.2728 83.9644 84.1932 83.8904C84.0551 83.4417 83.8653 82.9066 83.6064 82.1644C83.412 82.6005 83.2505 83.0506 83.1231 83.5107C82.6185 85.9938 81.1865 88.1911 79.1187 89.6554C77.3286 91.1211 75.377 92.3777 73.302 93.4009C72.3384 93.8312 71.3533 94.2114 70.3505 94.5401C69.6951 94.7803 68.9899 94.8525 68.2994 94.75C67.609 94.6474 66.9552 94.3735 66.3979 93.9532C65.5002 93.2906 64.6468 92.5698 63.8433 91.7957C63.159 91.0879 62.5192 90.3386 61.9274 89.5518C60.326 87.4407 58.151 85.8349 55.662 84.9261C55.5239 84.9261 55.4376 84.6672 55.3167 84.5118C56.594 84.2874 56.6976 84.2357 57.2672 84.5118C58.783 85.1184 60.1621 86.0222 61.3233 87.1699C62.2554 88.2055 63.1874 89.2239 64.1195 90.225C64.9688 91.2337 65.9775 92.0967 67.1055 92.7795C67.7151 93.1682 68.439 93.3373 69.1577 93.2588C69.8764 93.1804 70.5468 92.8591 71.0581 92.348C70.3094 89.9711 69.8006 87.5252 69.5392 85.0469C69.5296 84.7185 69.4205 84.4007 69.2263 84.1356C69.0321 83.8706 68.7621 83.6707 68.4518 83.5625C64.5683 82.0091 62.0137 78.9022 59.4937 75.7608C59.3557 75.571 59.2176 75.3121 59.6663 75.1222L61.0472 76.4513C62.0137 77.3488 62.9285 78.2981 63.9296 79.1611C66.4315 81.4441 69.6589 82.7705 73.0431 82.9066C74.9573 82.9835 76.8591 82.5675 78.5664 81.6984C78.9544 81.5214 79.2955 81.2559 79.5623 80.9231C79.8291 80.5904 80.0141 80.1997 80.1025 79.7825C80.1025 79.4718 80.2061 79.1784 80.2579 78.8504C80.8295 78.9378 81.4059 78.9897 81.9839 79.0058C82.3203 79.0396 82.6563 78.9386 82.9183 78.7251C83.1804 78.5116 83.3471 78.2029 83.382 77.8666C83.5599 77.0966 83.6525 76.3094 83.6582 75.5192C83.6159 74.7812 83.7505 74.0438 84.0508 73.3683C84.351 72.6929 84.8081 72.0988 85.3842 71.6356C86.2127 70.8934 86.9894 70.0822 87.8179 69.34C89.865 67.4734 91.5808 65.2731 92.8924 62.8329C94.2025 60.3233 95.1001 57.6191 95.5505 54.8241C96.0659 52.3069 96.0128 49.7064 95.3952 47.2123C94.7393 44.7959 94.0661 42.3794 93.2204 40.032C91.6754 35.4277 88.4438 31.5794 84.176 29.2616C79.8769 26.6765 74.8074 25.6809 69.8499 26.4482C65.2806 27.133 60.9778 29.0282 57.388 31.937C54.9619 33.9744 53.0031 36.5105 51.6449 39.3728C50.2868 42.235 49.5611 45.3563 49.5173 48.5241C49.4368 51.6806 49.6157 54.8383 50.0524 57.9655C50.2786 60.6571 49.8951 63.365 48.9304 65.888C48.7439 66.8224 48.1987 67.6465 47.4115 68.1836C46.6796 68.5776 46.0795 69.1777 45.6855 69.9096C43.1147 74.3726 40.8093 78.9834 38.7814 83.7178C38.2444 84.9838 37.7833 86.2806 37.4006 87.6014C36.3084 91.3204 35.6141 95.1449 35.3293 99.0105C35.0593 101.827 35.0131 104.661 35.1912 107.485C35.601 112.256 36.2869 116.999 37.2452 121.69C38.4512 128.146 41.3658 134.16 45.6855 139.106C47.5709 141.238 49.9378 142.889 52.5896 143.922C54.1536 144.642 55.8825 144.928 57.5951 144.75C60.1725 144.465 62.6668 143.667 64.9307 142.403C66.3288 141.54 67.6924 140.677 69.125 139.797C71.1125 138.601 72.9395 137.156 74.562 135.499C76.3743 133.773 78.3075 132.219 80.0335 130.7L80.068 130.735ZM101.057 119.136C100.657 119.176 100.263 119.263 99.8828 119.395C98.9439 119.858 98.0332 120.377 97.1557 120.948C95.8005 121.989 94.3077 122.837 92.7198 123.468C92.5645 123.468 92.4436 123.71 92.3056 123.848C93.1341 126.23 94.0316 128.577 94.791 130.925C94.8558 131.08 94.943 131.226 95.0499 131.356L98.83 129.251C99.8656 128.664 100.901 128.111 101.902 127.524C103.384 126.63 104.68 125.458 105.717 124.072C105.908 123.772 106.07 123.455 106.2 123.123C105.579 122.571 104.75 123.347 104.215 122.433C104.215 121.949 104.353 121.328 104.44 120.586C104.118 120.568 103.795 120.568 103.473 120.586C102.886 120.586 102.299 120.758 101.747 120.81C101.643 120.81 101.523 120.707 101.298 120.586C101.298 120.172 101.16 119.671 101.074 119.084" fill="#D95A3F"/>
<path d="M65.3796 62.5222C65.0397 62.6122 64.6842 62.6263 64.3382 62.5637C63.9922 62.5011 63.6642 62.3631 63.3774 62.1597C62.5053 61.5742 61.8318 60.7373 61.4464 59.76C61.0611 58.7827 60.9821 57.7114 61.2199 56.6882C61.3983 56.1452 61.6879 55.6454 62.0704 55.2207C62.453 54.7961 62.9199 54.4559 63.4413 54.222C63.9628 53.9881 64.5273 53.8655 65.0989 53.8622C65.6704 53.8589 66.2363 53.9748 66.7605 54.2027C66.9676 54.289 67.0884 54.5479 67.2783 54.7896C67.0194 54.9276 66.8468 55.083 66.6914 55.083C66.5361 55.083 66.1564 54.9622 65.9147 54.9967C63.2911 55.2728 61.9966 56.7227 62.7906 59.4326C63.0147 60.2637 63.4985 61.0015 64.1714 61.5383L65.4142 62.5222" fill="#D95A3F"/>
<path d="M83.5205 70.8589C83.1753 71.0315 82.8473 71.3422 82.5539 71.3249C81.8376 71.2937 81.1342 71.1237 80.4826 70.8244C79.8994 70.414 79.3914 69.906 78.981 69.3227C78.8118 69.1117 78.7057 68.857 78.6752 68.5882C78.6446 68.3194 78.6908 68.0475 78.8084 67.8038C79.0328 67.8038 79.3089 67.8038 79.3607 67.9592C79.717 68.6298 80.2232 69.2091 80.8399 69.6522C81.4565 70.0952 82.1671 70.3901 82.9164 70.5137C83.0455 70.5379 83.1725 70.5725 83.2961 70.6173C83.2961 70.6173 83.3824 70.7036 83.5205 70.8589Z" fill="#D95A3F"/>
</svg>
