<svg width="164" height="199" viewBox="0 0 164 199" fill="none" xmlns="http://www.w3.org/2000/svg">
<path d="M163.607 187.78C163.607 191.55 131.017 194.6 90.8073 194.6C50.5973 194.6 18.0073 191.6 18.0073 187.78C18.0073 183.96 50.5973 181 90.8073 181C131.017 181 163.607 184 163.607 187.78Z" fill="#EFE9E4"/>
<path d="M134.997 198.61C127.187 200.7 120.577 191.8 117.597 186.88C116.507 185.08 115.897 183.81 115.897 183.81L136.997 181C137.825 181.902 138.596 182.854 139.307 183.85C143.307 189.44 144.777 196 134.997 198.61Z" fill="#FEC5A7"/>
<path d="M139.297 183.86C135.811 186.416 131.62 187.834 127.297 187.92C124.021 188.012 120.747 187.676 117.557 186.92C116.467 185.12 115.857 183.85 115.857 183.85L136.997 181C137.822 181.906 138.59 182.861 139.297 183.86Z" fill="#E89A84"/>
<path d="M113.357 148.31C113.357 148.31 141.817 145.2 145.767 158.47C149.717 171.74 139.237 182.81 139.237 182.81C136.517 185.53 122.397 187.6 115.527 184.06C115.527 184.06 117.437 179.65 116.907 176.41C116.377 173.17 85.1273 182.41 74.7573 185.5C64.3873 188.59 43.4073 184.72 36.7573 177.66C31.2573 171.8 31.0173 156.6 41.0273 152.8C48.6473 149.91 69.6873 150.7 69.6873 150.7L113.357 148.31Z" fill="#8EC3B3"/>
<path d="M118.417 175.09C118.92 173.043 120.168 171.257 121.917 170.08C123.667 168.904 125.792 168.423 127.877 168.73C124.398 170.319 121.202 172.467 118.417 175.09Z" fill="#006167"/>
<path d="M117.217 174.18C117.33 169.557 118.956 165.099 121.847 161.49C119.598 162.691 117.855 164.661 116.937 167.04C116.463 168.179 116.242 169.408 116.291 170.641C116.339 171.874 116.655 173.082 117.217 174.18Z" fill="#006167"/>
<path d="M84.7873 195.45C77.0973 200.29 72.1873 195.82 69.3573 189.04C69.0173 188.26 68.7173 187.44 68.4473 186.61L78.9073 169.83L79.5873 170.7C82.4573 174.53 93.3273 190.07 84.7873 195.45Z" fill="#FEC5A7"/>
<path d="M79.5873 170.7C78.1946 177.727 74.6136 184.133 69.3573 189C69.0173 188.22 68.7173 187.4 68.4473 186.57L78.9073 169.79L79.5873 170.7Z" fill="#E89A84"/>
<path d="M79.2873 169.09C76.4588 176.22 72.4381 182.818 67.3973 188.6C60.0834 187.781 52.8969 186.071 45.9973 183.51C42.3973 182.17 38.7373 180.51 36.2973 177.51C34.37 174.768 33.2094 171.562 32.9352 168.222C32.6609 164.882 33.2831 161.529 34.7373 158.51C35.4226 157.206 36.3829 156.067 37.5518 155.171C38.7208 154.275 40.0704 153.643 41.5073 153.32C43.8146 153.04 46.1554 153.297 48.3473 154.07C59.0773 157.19 68.9973 162.58 79.2873 169.09Z" fill="#94CCBB"/>
<path d="M132.857 80.57C133.737 77.5 134.007 75.88 134.857 72.81C134.951 72.1909 135.281 71.632 135.777 71.25C135.986 71.1659 136.21 71.1251 136.435 71.1302C136.66 71.1353 136.882 71.1862 137.087 71.2798C137.292 71.3733 137.476 71.5076 137.627 71.6744C137.778 71.8412 137.894 72.037 137.967 72.25C138.307 73.19 137.737 75.25 137.867 76.25C139.743 74.7662 141.816 73.5512 144.027 72.64C145.027 72.22 146.347 71.92 147.127 72.7C149.337 74.91 144.517 76.7 143.267 78.5C146.517 77.76 150.337 77.44 150.807 79.32C151.277 81.2 146.537 82.04 144.807 82.85C146.484 82.8877 148.14 83.2265 149.697 83.85C150.347 84.12 151.087 84.67 150.887 85.35C150.727 85.88 150.077 86.06 149.537 86.16L144.997 87C145.607 87.78 146.717 87.88 147.647 88.2C148.577 88.52 149.527 89.51 149.057 90.38C148.727 91 147.897 91.11 147.197 91.15L136.127 91.73C135.267 88.54 134.407 85.33 132.857 80.57Z" fill="#FEC5A7"/>
<path d="M138.067 78C138.7 78.8163 139.107 79.7847 139.248 80.8079C139.388 81.8312 139.257 82.8734 138.867 83.83C139.609 82.8652 140.035 81.6955 140.087 80.48C140.122 80.1838 140.097 79.8836 140.013 79.5973C139.93 79.311 139.79 79.0444 139.601 78.8131C139.413 78.5819 139.18 78.3908 138.917 78.2511C138.653 78.1115 138.364 78.0261 138.067 78Z" fill="#E89A84"/>
<path d="M17.9973 109.37C16.7273 106.44 16.2373 104.87 14.9973 101.94C14.8201 101.338 14.4194 100.826 13.8773 100.51C13.6583 100.461 13.4315 100.456 13.2107 100.497C12.9899 100.538 12.7797 100.623 12.5927 100.747C12.4057 100.871 12.2459 101.032 12.123 101.22C12 101.408 11.9164 101.619 11.8773 101.84C11.6673 102.84 12.4973 104.84 12.4973 105.76C10.4292 104.531 8.19687 103.601 5.8673 103C4.8073 102.72 3.4673 102.59 2.7973 103.47C0.897303 105.95 5.9073 107.09 7.3773 108.71C4.0673 108.4 0.227303 108.58 0.00730285 110.51C-0.212697 112.44 4.5973 112.65 6.4173 113.22C4.75808 113.483 3.16145 114.049 1.7073 114.89C1.0973 115.24 0.437303 115.89 0.707303 116.53C0.977303 117.17 1.5973 117.13 2.1573 117.16L6.8073 117.37C6.3073 118.22 5.2173 118.47 4.3373 118.91C3.4573 119.35 2.6473 120.45 3.2173 121.25C3.6273 121.82 4.4573 121.82 5.1573 121.77L16.2073 120.9C16.6573 117.59 17.0873 114.3 17.9973 109.37Z" fill="#FEC5A7"/>
<path d="M12.8873 107.29C12.0647 108.204 11.5622 109.361 11.4557 110.586C11.3493 111.811 11.6447 113.038 12.2973 114.08C11.4469 113.099 10.886 111.901 10.6773 110.62C10.5854 109.892 10.7579 109.156 11.1636 108.544C11.5692 107.933 12.1809 107.488 12.8873 107.29Z" fill="#E89A84"/>
<path d="M115.847 121.5C118.617 131.34 120.317 137.97 122.197 147.99C101.627 159.78 76.9673 159.88 54.4373 150.69C54.8373 146.94 54.8473 137.25 54.8473 131.94C41.3373 131.09 26.1373 129.1 14.7073 123.31C14.1473 117.88 15.3873 110.71 16.8073 105.74C26.3679 107.498 36.119 107.986 45.8073 107.19C49.5005 106.893 53.1733 106.382 56.8073 105.66C73.9644 104.057 90.7539 99.7152 106.537 92.8C110.011 91.7173 113.4 90.3803 116.677 88.8C122.111 86.1281 127.325 83.0284 132.267 79.53C136.427 83.47 139.267 88.68 140.167 97.22C133.867 107.48 125.637 114.73 115.847 121.5Z" fill="#F2E2D3"/>
<path d="M116.677 88.8C110.677 101.28 99.4973 111.1 86.3873 114.8C79.4859 116.67 72.2513 116.958 65.2232 115.642C58.1951 114.326 51.5547 111.44 45.7973 107.2C49.4905 106.903 53.1633 106.392 56.7973 105.67C73.9584 104.065 90.7513 99.7197 106.537 92.8C110.011 91.7173 113.4 90.3803 116.677 88.8Z" fill="#EDD9C7"/>
<path d="M67.0673 105.43C69.9065 107.403 72.9509 109.062 76.1473 110.38C79.3687 111.702 82.9282 111.962 86.3073 111.12C91.9973 109.47 95.6473 104 97.5573 98.44C87.7073 101.34 77.5273 103.09 67.0673 105.43Z" fill="#E89A84"/>
<path d="M108.877 66C113.937 62.64 120.137 63.06 122.707 66.94C125.277 70.82 123.257 76.69 118.197 80.05C113.137 83.41 106.927 82.99 104.357 79.12C101.787 75.25 103.807 69.33 108.877 66Z" fill="#E89A84"/>
<path d="M40.8673 100.19C56.8673 111.49 79.5873 108.39 97.7373 101.08C103.857 98.61 109.957 95.08 113.197 89.33C116.437 83.58 115.717 75.21 110.197 71.62C108.697 55.33 107.757 47.91 104.027 39.53C99.4373 29.24 96.3273 27.53 88.8173 22.23C79.1573 15.47 67.4673 15.48 55.9973 18.3C40.7373 22.07 25.8973 32.51 20.2973 47.23C10.1273 74 31.3173 93.44 40.8673 100.19Z" fill="#FEC5A7"/>
<path d="M31.7173 83.49C30.0901 75.3462 30.2778 66.9438 32.2672 58.8807C34.2566 50.8177 37.9987 43.2923 43.2273 36.84C46.8673 39.18 50.9173 41.13 55.2273 41.36C59.5373 41.59 64.2273 39.78 66.4973 35.93C64.6598 35.4781 62.9187 34.699 61.3573 33.63C62.7648 34.1722 64.2688 34.4192 65.7757 34.3555C67.2827 34.2919 68.7605 33.919 70.1173 33.26C72.824 31.9191 75.1929 29.9844 77.0473 27.6C73.8853 27.3438 70.8156 26.4093 68.0473 24.86C70.1573 25.72 77.6673 23.75 79.3973 20.67C73.1573 19.67 61.6973 21.6 55.8573 21.13C46.643 24.3721 38.1847 29.4552 30.9973 36.07C26.4223 46.2747 24.5292 57.4787 25.4973 68.62C26.0873 73.55 27.9973 78.32 31.7173 83.49Z" fill="#E89A84"/>
<path d="M28.2873 89.89C30.8593 91.9027 33.5472 93.7626 36.3373 95.46C31.8873 85.12 27.9973 74 28.2673 62.46C28.5373 50.92 33.6273 39.12 43.4073 33.1C46.286 36.7523 50.4145 39.2101 54.9973 40C59.8773 40.79 65.0773 39.31 68.1873 36C65.7729 35.9359 63.3983 35.3692 61.2151 34.3361C59.0318 33.3031 57.0879 31.8263 55.5073 30C58.6473 33 63.4373 33.83 67.6873 32.89C71.9373 31.95 75.6873 29.47 78.9673 26.63C76.5367 27.2624 73.9895 27.2989 71.5418 26.7366C69.0941 26.1743 66.8182 25.0297 64.9073 23.4C65.7273 23.63 69.9073 24.89 73.7573 23.84C74.4173 23.66 75.0873 23.45 75.7573 23.22C77.7455 22.5359 79.5419 21.3875 80.9973 19.87C85.8747 21.3298 90.2597 24.0964 93.6773 27.87C99.5373 34.26 103.927 41 108.397 55.62C108.247 44.45 100.887 28.62 92.2573 22.06C89.4073 19.91 86.2482 18.204 82.8873 17C83.5292 15.6202 83.8434 14.1106 83.8052 12.5892C83.7671 11.0678 83.3776 9.57591 82.6673 8.23C82.1168 9.80221 81.2383 11.2394 80.0901 12.4462C78.9419 13.6531 77.5502 14.602 76.0073 15.23C75.1273 15.09 74.2473 14.98 73.3473 14.91C74.6777 12.8287 75.3018 10.374 75.1273 7.91C74.9073 4.88319 73.5411 2.05425 71.3073 0C72.4773 2.39 71.3873 5.65 69.4173 7.86C67.4473 10.07 60.2973 14.44 51.1673 18.38C43.5273 21.69 35.5773 24.7 29.4673 30.26L28.7073 30.97L27.9973 31.66C19.9973 39.66 14.9373 50.84 15.7973 62.09C16.5873 72.36 21.9973 81.69 28.2873 89.89Z" fill="#703B26"/>
<path d="M42.5473 24C51.9973 20.57 64.2573 16.85 71.2273 9.34C72.9973 13.8 69.3973 16.75 66.3373 18C70.9373 18.32 75.5873 18.06 80.7273 14.89C80.5873 18.63 78.7273 21.15 75.7273 23.2C77.7233 22.5289 79.5301 21.3906 80.9973 19.88C85.8747 21.3398 90.2597 24.1064 93.6773 27.88C99.5573 34.23 103.947 41.01 108.417 55.59C108.267 44.42 100.907 28.59 92.2773 22.03C89.4193 19.8888 86.2534 18.1929 82.8873 17C83.5292 15.6202 83.8434 14.1106 83.8052 12.5892C83.7671 11.0678 83.3776 9.57591 82.6673 8.23C82.1168 9.80221 81.2383 11.2394 80.0901 12.4462C78.9419 13.6531 77.5502 14.602 76.0073 15.23C75.1273 15.09 74.2473 14.98 73.3473 14.91C74.6777 12.8287 75.3019 10.374 75.1273 7.91C74.9073 4.88319 73.5411 2.05425 71.3073 0C72.4773 2.39 71.3873 5.65 69.4173 7.86C67.4473 10.07 60.2973 14.45 51.1673 18.39C43.5273 21.7 35.5773 24.71 29.4673 30.27L28.7073 30.98L27.9973 31.67C32.507 28.5142 37.3953 25.9374 42.5473 24Z" fill="#9E6747"/>
<path d="M45.0631 95.9272C45.1983 91.4206 40.2577 87.6157 34.0279 87.4288C27.7981 87.2419 22.6383 90.7438 22.5031 95.2504C22.3679 99.757 27.3085 103.562 33.5383 103.749C39.7681 103.936 44.9279 100.434 45.0631 95.9272Z" fill="#FEC5A7"/>
<path d="M89.3073 81.87C89.9609 82.4411 90.4158 83.2052 90.6064 84.0519C90.7969 84.8986 90.7132 85.784 90.3673 86.58" stroke="#C96B65" stroke-miterlimit="10" stroke-linecap="round"/>
<path d="M89.3573 89.29C86.5665 90.3483 83.5156 90.5125 80.6273 89.76C79.2773 89.41 77.7373 88.89 76.6273 89.71C76.1675 90.1076 75.833 90.6301 75.6643 91.2141C75.4957 91.7981 75.5002 92.4185 75.6773 93C76.0307 94.1517 76.7287 95.1674 77.6773 95.91C79.5032 97.4612 81.855 98.2523 84.2473 98.12C86.6201 97.9549 88.8376 96.8802 90.4373 95.12C91.4063 94.1526 91.9651 92.8489 91.9973 91.48C91.9973 90.12 90.9973 88.67 89.3573 89.29Z" fill="white"/>
<path d="M90.6173 56.49C91.5508 54.2767 92.8677 52.2455 94.5073 50.49C95.3352 49.6176 96.3476 48.9412 97.4705 48.5104C98.5934 48.0796 99.7983 47.9052 100.997 48C102.263 48.2017 103.425 48.8196 104.3 49.756C105.174 50.6924 105.712 51.8938 105.827 53.17C100.997 51.62 95.3873 52.82 90.6173 56.49Z" fill="#703B26"/>
<path d="M62.0673 63.82C60.4971 62.1394 58.4429 60.9891 56.1895 60.5285C53.9361 60.068 51.5953 60.3202 49.4917 61.25C47.388 62.1798 45.6259 63.7412 44.4496 65.7176C43.2734 67.6941 42.7414 69.9876 42.9273 72.28C46.9973 66.87 53.8373 63.67 62.0673 63.82Z" fill="#703B26"/>
<path d="M67.5273 89.7C64.8138 88.3261 61.7115 87.9238 58.7373 88.56C55.8677 89.1965 53.2859 90.7561 51.3873 93C51.6622 91.283 52.4351 89.6846 53.6101 88.4029C54.7851 87.1212 56.3106 86.2126 57.9973 85.79C59.7938 85.4499 61.6503 85.6383 63.3419 86.3324C65.0334 87.0264 66.4873 88.1962 67.5273 89.7Z" fill="#303E52"/>
<path d="M109.647 76.16C108.313 75.576 106.866 75.2949 105.41 75.3368C103.954 75.3787 102.526 75.7426 101.227 76.4023C99.929 77.0621 98.7929 78.0013 97.9007 79.1524C97.0084 80.3035 96.3823 81.638 96.0673 83.06C95.7095 81.33 95.903 79.5314 96.6205 77.917C97.338 76.3026 98.5434 74.9537 100.067 74.06C101.641 73.1648 103.491 72.884 105.26 73.2718C107.029 73.6595 108.592 74.6884 109.647 76.16Z" fill="#303E52"/>
</svg>
