<svg width="34" height="40" viewBox="0 0 34 40" fill="none" xmlns="http://www.w3.org/2000/svg">
<path d="M28.1787 2.96846C26.3704 0.890761 23.1016 0 18.9198 0H6.78315C6.3694 1.54434e-05 5.96923 0.148814 5.65458 0.419644C5.33993 0.690474 5.13144 1.06557 5.0666 1.47749L0.0131139 33.786C-0.0873329 34.4231 0.402053 35 1.04263 35H8.53539L10.4171 22.9683L10.3587 23.345C10.4928 22.4946 11.2144 21.8673 12.0688 21.8673H15.6293C22.624 21.8673 28.101 19.0033 29.7008 10.7186C29.7483 10.4735 29.7895 10.235 29.825 10.0021C29.6231 9.89426 29.6231 9.89426 29.825 10.0021C30.3014 6.93993 29.8218 4.85556 28.1787 2.96846Z" fill="#27346A"/>
<path d="M13.2841 8.8992C13.489 8.80088 13.713 8.74993 13.9399 8.75006H23.4548C24.5815 8.75006 25.6324 8.82398 26.5928 8.97979C26.8615 9.02299 27.1288 9.07456 27.3944 9.13443C27.7708 9.21815 28.1428 9.32063 28.5092 9.44147C28.9813 9.60042 29.421 9.78554 29.8251 10.0023C30.3014 6.93893 29.8217 4.85568 28.1786 2.96854C26.3693 0.890784 23.1015 0 18.9198 0H6.7821C5.92752 0 5.20052 0.627173 5.06659 1.47753L0.0131146 33.7857C-0.087332 34.4238 0.402053 35 1.04159 35H8.53537L12.4394 10.0426C12.4778 9.7973 12.5747 9.56506 12.7219 9.36589C12.869 9.16671 13.062 9.00656 13.2841 8.8992Z" fill="#27346A"/>
<path d="M30.6173 10.732C29.0231 19.1945 23.5657 22.1215 16.5958 22.1215H13.0469C12.1955 22.1215 11.4763 22.7623 11.3441 23.6311L9.01134 38.9143C8.92419 39.4839 9.35041 40 9.90801 40H16.2018C16.5623 39.9999 16.911 39.8669 17.185 39.6248C17.4591 39.3828 17.6407 39.0476 17.697 38.6796L17.7583 38.3481L18.9445 30.5785L19.021 30.1491C19.0773 29.7811 19.2588 29.4459 19.5329 29.2039C19.807 28.9618 20.1556 28.8288 20.5161 28.8286H21.458C27.5548 28.8286 32.3287 26.2688 33.7238 18.8653C34.3061 15.7714 34.0048 13.1883 32.4644 11.3739C31.9972 10.8243 31.4169 10.3705 30.741 10C30.7044 10.2392 30.6647 10.4817 30.6173 10.732Z" fill="#2790C3"/>
<path d="M28.2785 9.59548C28.0222 9.52001 27.7635 9.4532 27.5028 9.39515C27.2298 9.33462 26.9552 9.28199 26.6792 9.23731C25.6915 9.0761 24.6125 9 23.4539 9H13.6793C13.4461 8.99947 13.2157 9.05229 13.0056 9.15449C12.7771 9.26447 12.5786 9.42896 12.4274 9.63372C12.2762 9.83847 12.1767 10.0773 12.1376 10.3296L10.06 23.6128L10 24C10.1367 23.126 10.878 22.4813 11.756 22.4813H15.4152C22.6016 22.4813 28.2285 19.5379 29.8723 11.0235C29.9212 10.7716 29.9623 10.5276 30 10.2871C29.5837 10.0655 29.1332 9.87405 28.648 9.71177C28.5256 9.67085 28.4024 9.63208 28.2787 9.59548" fill="#1F264F"/>
</svg>
