<svg width="56" height="18" viewBox="0 0 56 18" fill="none" xmlns="http://www.w3.org/2000/svg">
<path d="M28.9618 5.75439C28.9299 8.26187 31.2069 9.66105 32.9221 10.493C34.6843 11.3466 35.2763 11.894 35.2693 12.6574C35.2562 13.8255 33.8636 14.3411 32.5605 14.3612C30.287 14.3962 28.9651 13.7502 27.9142 13.2616L27.0952 17.0761C28.1496 17.5597 30.102 17.9815 32.1265 18C36.8788 18 39.9879 15.665 40.0048 12.0446C40.0234 7.44992 33.6199 7.1956 33.6637 5.14189C33.6788 4.51916 34.2757 3.85462 35.5838 3.68566C36.2313 3.60031 38.0187 3.53498 40.0452 4.46386L40.8406 0.77319C39.7508 0.378212 38.3502 0 36.6063 0C32.1333 0 28.9872 2.36682 28.9618 5.75439ZM48.4833 0.317898C47.6155 0.317898 46.8843 0.821745 46.5579 1.59493L39.7694 17.7289H44.5182L45.4632 15.1293H51.2663L51.8144 17.7289H56L52.3475 0.317898H48.4833ZM49.1477 5.02127L50.5181 11.5593H46.7648L49.1477 5.02127ZM23.2041 0.318115L19.4609 17.7287H23.9862L27.7277 0.31768H23.2041M16.5097 0.31768L11.7996 12.1685L9.89428 2.09225C9.67072 0.967413 8.78784 0.317898 7.80741 0.317898H0.107844L0 0.823486C1.58069 1.1649 3.37663 1.71556 4.46469 2.30476C5.13056 2.66468 5.32044 2.97932 5.53919 3.83459L9.14791 17.7289H13.93L21.2616 0.317898H16.5097" fill="url(#paint0_linear_506_283)"/>
<defs>
<linearGradient id="paint0_linear_506_283" x1="25.7454" y1="18.3611" x2="26.2641" y2="-0.125319" gradientUnits="userSpaceOnUse">
<stop stop-color="#222357"/>
<stop offset="1" stop-color="#254AA5"/>
</linearGradient>
</defs>
</svg>
