<svg width="142" height="142" viewBox="0 0 142 142" fill="none" xmlns="http://www.w3.org/2000/svg">
<g clip-path="url(#clip0_786_977)">
<path d="M89.2525 76.2495L135.238 91.9525L142 141.559H73.1015L89.2525 76.2495Z" fill="#ACDCE2"/>
<path d="M52.7475 76.2495L6.76202 91.9525L0 141.559H68.8985L52.7475 76.2495Z" fill="#E2F5F7"/>
<path d="M45.12 109.375L6.76202 91.9525L0 141.559H68.8985L45.12 109.375Z" fill="#CEEEF2"/>
<path d="M124.953 96.6293L89.2525 76.7678L85.5607 92.3043H56.4393L52.7475 76.9719L17.0469 96.7865L20.7387 141.559H54.964H68.8984H73.1015H87.681H121.261L124.953 96.6293Z" fill="#C3E4EA"/>
<path d="M41.9254 78.2197L35.9632 104.606L53.8475 110.177L45.9315 128.941L71 141.986V128.162L41.9254 78.2197Z" fill="#E2F5F7"/>
<path d="M100.079 78.2197L106.034 104.606L88.1501 110.177L96.0685 128.941L71 141.986V128.162L100.079 78.2197Z" fill="#CEEEF2"/>
<path d="M95.6533 26.6309C95.6533 38.3934 86.7945 47.7402 75.8622 47.7402H66.1378C55.2079 47.7402 46.3467 38.3934 46.3467 26.6309C46.3467 14.8636 55.2055 5.52155 66.1378 5.52155H75.8622C86.7921 5.52155 95.6533 14.8636 95.6533 26.6309Z" fill="#E8790A"/>
<path d="M88.6896 85.2678H53.3104L55.67 57.1221H86.3301L88.6896 85.2678Z" fill="#F9BDA0"/>
<path d="M88.6896 85.2678H70.9437L53.3104 57.1221H86.3301L88.6896 85.2678Z" fill="#E28F71"/>
<path d="M94.8887 32.7455C94.8887 53.5241 84.4161 72.3255 71.0023 72.3255C57.5839 72.3255 47.116 53.5241 47.116 32.7455C47.116 11.9646 57.5839 8.505 71.0023 8.505C84.4161 8.505 94.8887 11.9646 94.8887 32.7455Z" fill="#FCCCB9"/>
<path d="M71.0023 8.505C84.4161 8.505 94.8887 11.9646 94.8887 32.7455C94.8887 53.5241 84.4161 72.3255 71.0023 72.3255" fill="#F9BDA0"/>
<path d="M70.4207 127.374L49.2785 98.6816L41.6463 78.2197L52.4027 73.7117L71.0023 85.4836L89.5973 73.7117L100.354 78.2197L92.7215 98.6816L71.5793 127.374L70.9836 128.387L70.4207 127.374Z" fill="#6B767C"/>
<path d="M71.0023 85.4836L89.5973 73.7117L100.354 78.2197L92.7215 98.6816L71.5793 127.374L70.9836 128.387L70.4207 127.374" fill="#4E595E"/>
<path d="M52.4027 73.7117L70.9437 85.2678L49.2832 96.9507L52.4027 73.7117Z" fill="#4E595E"/>
<path d="M89.5973 73.7117L70.9437 85.2678L92.7215 96.9507L89.5973 73.7117Z" fill="#454F54"/>
<path d="M47.2497 29.5955C45.9808 29.0396 43.8863 22.9297 45.0051 20.3825C46.1309 17.8306 50.4161 18.5647 51.6803 19.1229C52.9539 19.6812 54.007 22.871 51.9547 24.7498" fill="#E8790A"/>
<path d="M94.7409 29.5416C96.0145 28.981 98.1208 22.8734 97.0043 20.3262C95.8855 17.7813 91.6074 18.5178 90.3338 19.0784C89.0649 19.639 88.0024 22.8335 90.0547 24.7052" fill="#E8790A"/>
<path d="M74.6355 16.0668C74.6355 16.0668 79.2772 25.7888 96.6713 26.1805C96.6713 26.1805 103.175 7.27127 77.7644 3.75305L74.6355 16.0668Z" fill="#E8790A"/>
<path d="M85.6757 11.0801C85.6757 11.0801 84.2097 30.1372 46.0957 22.8075C46.0957 22.8075 39.3524 20.4621 40.232 14.8916C40.232 14.8916 41.6979 20.1689 45.5093 15.7711C45.5093 15.7711 50.9321 -0.696505 67.0596 0.0376303C83.1871 0.771765 85.6757 11.0801 85.6757 11.0801Z" fill="#F98821"/>
<path d="M85.6757 11.0803C85.6757 11.0803 84.2097 30.1373 46.0957 22.8077C46.0957 22.8077 39.3524 20.4622 40.232 14.8917C40.232 14.8917 41.6979 20.1691 45.5093 15.7713" fill="#E8790A"/>
<path d="M72.7192 85.2678L77.572 119.242L70.9977 126.863L64.4233 119.301L69.2855 85.2678H72.7192Z" fill="#23343A"/>
<path d="M68.95 87.6133H73.0546L77.572 119.242L70.9977 126.863" fill="#071519"/>
<path d="M69.3582 89.9588L68.3402 87.048L70.9977 85.2233L73.6551 86.9965L72.6371 89.9588H69.3582Z" fill="#071519"/>
<path d="M122.718 116.531C122.718 116.775 122.516 116.972 122.275 116.972H96.3359C96.0919 116.972 95.8949 116.775 95.8949 116.531C95.8949 116.287 96.0919 116.09 96.3359 116.09H122.272C122.516 116.09 122.718 116.287 122.718 116.531Z" fill="white"/>
<path d="M39.336 99.7207C38.691 99.7207 38.1633 99.1953 38.1633 98.5479V76.6576C38.1633 69.5461 44.5406 63.7574 51.6498 63.7574C52.2995 63.7574 53.1134 64.2828 53.1134 64.9302C53.1134 65.5775 52.1541 66.1029 51.502 66.1029C45.6852 66.1029 40.5064 70.8384 40.5064 76.6576V98.5479C40.5088 99.1953 39.9857 99.7207 39.336 99.7207Z" fill="#4E595E"/>
<path d="M100.318 111.448C100.968 111.448 101.491 110.923 101.491 110.275V76.6576C101.491 69.5461 96.2913 63.7574 89.1775 63.7574C88.5325 63.7574 88.2956 64.2828 88.2956 64.9302C88.2956 65.5775 88.3847 66.1029 89.0297 66.1029C94.8512 66.1029 99.1434 70.8384 99.1434 76.6576V110.275C99.1457 110.923 99.6735 111.448 100.318 111.448Z" fill="#4E595E"/>
<path d="M100.354 115.112C101.865 115.112 103.091 113.886 103.091 112.375C103.091 110.863 101.865 109.637 100.354 109.637C98.842 109.637 97.6165 110.863 97.6165 112.375C97.6165 113.886 98.842 115.112 100.354 115.112Z" fill="#7CB1B5"/>
<path d="M108.955 120.75C108.955 125.498 105.096 129.353 100.356 129.353C95.6017 129.353 91.7528 125.498 91.7528 120.75C91.7528 116.008 95.6017 112.152 100.356 112.152C105.096 112.152 108.955 116.008 108.955 120.75Z" fill="#37A2A5"/>
<path d="M94.2765 114.671C97.6259 111.317 103.081 111.317 106.435 114.671C109.794 118.03 109.79 123.483 106.44 126.834" fill="#1B8796"/>
<path d="M100.356 125.347C102.892 125.347 104.948 123.291 104.948 120.755C104.948 118.219 102.892 116.162 100.356 116.162C97.8197 116.162 95.7636 118.219 95.7636 120.755C95.7636 123.291 97.8197 125.347 100.356 125.347Z" fill="#37A2A5"/>
<path d="M97.1075 123.999C95.3156 122.211 95.3156 119.294 97.1075 117.506C98.8995 115.71 101.813 115.715 103.605 117.502" fill="#1B8796"/>
<path d="M47.5452 134.987L45.1176 105.082C45.1176 102.577 43.0349 100.537 40.5299 100.537C38.0249 100.537 35.9022 102.575 35.9022 105.082L33.4723 134.987V105.082C33.4723 101.283 36.7114 98.1914 40.5088 98.1914C44.3108 98.1914 47.5452 101.28 47.5452 105.082V134.987Z" fill="#37A2A5"/>
<path d="M35.4261 134.253C35.4261 135.811 35.8061 137.075 34.9125 137.075C34.0235 137.075 33.2988 135.811 33.2988 134.253C33.2988 132.696 34.0235 131.432 34.9125 131.432C35.8061 131.432 35.4261 132.696 35.4261 134.253Z" fill="#37A2A5"/>
<path d="M33.5896 135.914C34.2645 135.914 34.8116 135.17 34.8116 134.253C34.8116 133.336 34.2645 132.593 33.5896 132.593C32.9147 132.593 32.3676 133.336 32.3676 134.253C32.3676 135.17 32.9147 135.914 33.5896 135.914Z" fill="#1B8796"/>
<path d="M45.5492 134.253C45.5492 132.696 45.1692 131.432 46.0629 131.432C46.9518 131.432 47.6766 132.696 47.6766 134.253C47.6766 135.811 46.9518 137.075 46.0629 137.075C45.1692 137.075 45.5492 135.811 45.5492 134.253Z" fill="#37A2A5"/>
<path d="M47.381 135.914C48.0559 135.914 48.603 135.17 48.603 134.253C48.603 133.336 48.0559 132.593 47.381 132.593C46.7061 132.593 46.159 133.336 46.159 134.253C46.159 135.17 46.7061 135.914 47.381 135.914Z" fill="#1B8796"/>
<path d="M115.564 104.032H113.219V111.068H115.564V104.032Z" fill="#4E595E"/>
<path d="M117.91 106.377H110.873V108.723H117.91V106.377Z" fill="#4E595E"/>
</g>
<defs>
<clipPath id="clip0_786_977">
<rect width="142" height="142" fill="white"/>
</clipPath>
</defs>
</svg>
