<svg width="75" height="75" viewBox="0 0 75 75" fill="none" xmlns="http://www.w3.org/2000/svg">
<g clip-path="url(#clip0_756_286)">
<path d="M47.1404 40.2726L71.4285 48.5664L75 74.7673H38.61L47.1404 40.2726Z" fill="#ACDCE2"/>
<path d="M27.8596 40.2726L3.57149 48.5664L0 74.7673H36.39L27.8596 40.2726Z" fill="#E2F5F7"/>
<path d="M23.831 57.7683L3.57149 48.5664L0 74.7673H36.39L23.831 57.7683Z" fill="#CEEEF2"/>
<path d="M65.9963 51.0366L47.1404 40.5464L45.1905 48.7523H29.8095L27.8596 40.6542L9.00366 51.1196L10.9535 74.7673H29.0303H36.39H38.61H46.3104H64.0464L65.9963 51.0366Z" fill="#C3E4EA"/>
<path d="M22.1437 41.3132L18.9947 55.2498L28.4406 58.192L24.2596 68.1025L37.5 74.9927V67.6912L22.1437 41.3132Z" fill="#E2F5F7"/>
<path d="M52.8588 41.3132L56.0041 55.2498L46.5582 58.192L50.7404 68.1025L37.5 74.9927V67.6912L52.8588 41.3132Z" fill="#CEEEF2"/>
<path d="M50.5211 14.0656C50.5211 20.2782 45.8421 25.2149 40.0681 25.2149H34.9319C29.1591 25.2149 24.4789 20.2782 24.4789 14.0656C24.4789 7.85048 29.1579 2.91631 34.9319 2.91631H40.0681C45.8409 2.91631 50.5211 7.85048 50.5211 14.0656Z" fill="#E8790A"/>
<path d="M46.8431 45.0358H28.1569L29.4031 30.1701H45.5969L46.8431 45.0358Z" fill="#F9BDA0"/>
<path d="M46.8431 45.0358H37.4703L28.1569 30.1701H45.5969L46.8431 45.0358Z" fill="#E28F71"/>
<path d="M50.1173 17.2952C50.1173 28.2698 44.586 38.2001 37.5012 38.2001C30.414 38.2001 24.8852 28.2698 24.8852 17.2952C24.8852 6.31933 30.414 4.49208 37.5012 4.49208C44.586 4.49208 50.1173 6.31933 50.1173 17.2952Z" fill="#FCCCB9"/>
<path d="M37.5012 4.49208C44.586 4.49208 50.1173 6.31933 50.1173 17.2952C50.1173 28.2698 44.586 38.2001 37.5012 38.2001" fill="#F9BDA0"/>
<path d="M37.194 67.2749L26.0274 52.1206L21.9963 41.3132L27.6775 38.9322L37.5012 45.1498L47.3225 38.9322L53.0037 41.3132L48.9726 52.1206L37.806 67.2749L37.4913 67.8101L37.194 67.2749Z" fill="#6B767C"/>
<path d="M37.5012 45.1498L47.3225 38.9322L53.0037 41.3132L48.9726 52.1206L37.806 67.2749L37.4913 67.8101L37.194 67.2749" fill="#4E595E"/>
<path d="M27.6775 38.9322L37.4703 45.0358L26.0299 51.2063L27.6775 38.9322Z" fill="#4E595E"/>
<path d="M47.3225 38.9322L37.4703 45.0358L48.9726 51.2063L47.3225 38.9322Z" fill="#454F54"/>
<path d="M24.9558 15.6315C24.2856 15.3379 23.1794 12.1108 23.7703 10.7654C24.3649 9.41759 26.6282 9.80534 27.2959 10.1002C27.9686 10.395 28.5248 12.0798 27.4409 13.0721" fill="#E8790A"/>
<path d="M50.0392 15.603C50.7119 15.3069 51.8243 12.081 51.2347 10.7357C50.6438 9.39158 48.3842 9.78056 47.7115 10.0766C47.0413 10.3727 46.4801 12.06 47.5641 13.0485" fill="#E8790A"/>
<path d="M39.4202 8.486C39.4202 8.486 41.8718 13.6209 51.0588 13.8277C51.0588 13.8277 54.494 3.84047 41.0727 1.98225L39.4202 8.486Z" fill="#E8790A"/>
<path d="M45.2512 5.8522C45.2512 5.8522 44.477 15.9175 24.3463 12.0462C24.3463 12.0462 20.7847 10.8074 21.2493 7.86526C21.2493 7.86526 22.0236 10.6526 24.0366 8.32982C24.0366 8.32982 26.9007 -0.367864 35.4188 0.0198833C43.9369 0.407631 45.2512 5.8522 45.2512 5.8522Z" fill="#F98821"/>
<path d="M45.2512 5.85229C45.2512 5.85229 44.477 15.9176 24.3463 12.0463C24.3463 12.0463 20.7847 10.8075 21.2493 7.86536C21.2493 7.86536 22.0236 10.6527 24.0366 8.32991" fill="#E8790A"/>
<path d="M38.4081 45.0358L40.9712 62.98L37.4988 67.0049L34.0264 63.011L36.5944 45.0358H38.4081Z" fill="#23343A"/>
<path d="M36.4173 46.2746H38.5852L40.9711 62.98L37.4988 67.0049" fill="#071519"/>
<path d="M36.6328 47.5135L36.0952 45.9761L37.4988 45.0123L38.9023 45.9488L38.3647 47.5135H36.6328Z" fill="#071519"/>
<path d="M64.8157 61.5479C64.8157 61.6768 64.7092 61.7808 64.5816 61.7808H50.8816C50.7528 61.7808 50.6487 61.6768 50.6487 61.5479C50.6487 61.4191 50.7528 61.315 50.8816 61.315H64.5804C64.7092 61.315 64.8157 61.4191 64.8157 61.5479Z" fill="white"/>
<path d="M20.7761 52.6694C20.4354 52.6694 20.1567 52.3919 20.1567 52.05V40.4882C20.1567 36.7321 23.525 33.6747 27.2798 33.6747C27.623 33.6747 28.0528 33.9522 28.0528 34.2941C28.0528 34.636 27.5462 34.9135 27.2018 34.9135C24.1295 34.9135 21.3942 37.4147 21.3942 40.4882V52.05C21.3955 52.3919 21.1192 52.6694 20.7761 52.6694Z" fill="#4E595E"/>
<path d="M52.9851 58.8634C53.3283 58.8634 53.6045 58.5859 53.6045 58.244V40.4882C53.6045 36.7321 50.8581 33.6747 47.1008 33.6747C46.7601 33.6747 46.635 33.9522 46.635 34.2941C46.635 34.636 46.6821 34.9135 47.0227 34.9135C50.0975 34.9135 52.3645 37.4147 52.3645 40.4882V58.244C52.3657 58.5859 52.6444 58.8634 52.9851 58.8634Z" fill="#4E595E"/>
<path d="M53.0037 60.7984C53.8021 60.7984 54.4494 60.1512 54.4494 59.3527C54.4494 58.5543 53.8021 57.9071 53.0037 57.9071C52.2053 57.9071 51.558 58.5543 51.558 59.3527C51.558 60.1512 52.2053 60.7984 53.0037 60.7984Z" fill="#7CB1B5"/>
<path d="M57.5464 63.7766C57.5464 66.2839 55.5086 68.3205 53.0049 68.3205C50.4939 68.3205 48.461 66.2839 48.461 63.7766C48.461 61.2717 50.4939 59.2351 53.0049 59.2351C55.5086 59.2351 57.5464 61.2717 57.5464 63.7766Z" fill="#37A2A5"/>
<path d="M49.7939 60.5655C51.563 58.794 54.4444 58.794 56.2159 60.5655C57.9899 62.3395 57.9874 65.2198 56.2184 66.99" fill="#1B8796"/>
<path d="M53.0049 66.2046C54.3446 66.2046 55.4305 65.1186 55.4305 63.779C55.4305 62.4394 54.3446 61.3534 53.0049 61.3534C51.6653 61.3534 50.5793 62.4394 50.5793 63.779C50.5793 65.1186 51.6653 66.2046 53.0049 66.2046Z" fill="#37A2A5"/>
<path d="M51.2892 65.4923C50.3427 64.5483 50.3427 63.0072 51.2892 62.0633C52.2356 61.1143 53.7742 61.1168 54.7207 62.0608" fill="#1B8796"/>
<path d="M25.1119 71.2961L23.8297 55.5013C23.8297 54.1783 22.7297 53.1005 21.4066 53.1005C20.0836 53.1005 18.9625 54.177 18.9625 55.5013L17.6791 71.2961V55.5013C17.6791 53.4944 19.3899 51.8617 21.3955 51.8617C23.4036 51.8617 25.1119 53.4932 25.1119 55.5013V71.2961Z" fill="#37A2A5"/>
<path d="M18.711 70.9084C18.711 71.7309 18.9117 72.3987 18.4397 72.3987C17.9702 72.3987 17.5874 71.7309 17.5874 70.9084C17.5874 70.0858 17.9702 69.4181 18.4397 69.4181C18.9117 69.4181 18.711 70.0858 18.711 70.9084Z" fill="#37A2A5"/>
<path d="M17.741 71.7854C18.0974 71.7854 18.3864 71.3928 18.3864 70.9084C18.3864 70.424 18.0974 70.0313 17.741 70.0313C17.3845 70.0313 17.0956 70.424 17.0956 70.9084C17.0956 71.3928 17.3845 71.7854 17.741 71.7854Z" fill="#1B8796"/>
<path d="M24.0577 70.9084C24.0577 70.0858 23.857 69.4181 24.329 69.4181C24.7985 69.4181 25.1813 70.0858 25.1813 70.9084C25.1813 71.7309 24.7985 72.3987 24.329 72.3987C23.857 72.3987 24.0577 71.7309 24.0577 70.9084Z" fill="#37A2A5"/>
<path d="M25.0252 71.7854C25.3816 71.7854 25.6706 71.3928 25.6706 70.9084C25.6706 70.424 25.3816 70.0313 25.0252 70.0313C24.6687 70.0313 24.3798 70.424 24.3798 70.9084C24.3798 71.3928 24.6687 71.7854 25.0252 71.7854Z" fill="#1B8796"/>
<path d="M61.0374 54.9463H59.7986V58.6627H61.0374V54.9463Z" fill="#4E595E"/>
<path d="M62.2762 56.1851H58.5598V57.4239H62.2762V56.1851Z" fill="#4E595E"/>
</g>
<defs>
<clipPath id="clip0_756_286">
<rect width="75" height="75" fill="white"/>
</clipPath>
</defs>
</svg>
