<svg width="26" height="26" viewBox="0 0 26 26" fill="none" xmlns="http://www.w3.org/2000/svg">
<g clip-path="url(#clip0_768_1027)">
<path d="M10.5674 7.44494C10.5674 6.82744 11.0679 6.32775 11.6846 6.32775H14.3699C18.0676 6.32775 21.0958 9.28281 21.0958 12.9659C21.0958 16.6473 18.0676 19.6032 14.3699 19.6032H11.6838C11.0663 19.6032 10.5666 19.1027 10.5666 18.486V7.44413L10.5674 7.44494ZM12.8018 17.2673C12.8018 17.3233 12.8473 17.3688 12.9033 17.3688H14.3699C16.8675 17.3688 18.8614 15.3806 18.8614 12.9651C18.8614 10.5495 16.8675 8.56131 14.3699 8.56131H12.9025C12.8891 8.56131 12.8758 8.56397 12.8634 8.56912C12.8511 8.57428 12.8398 8.58183 12.8304 8.59135C12.821 8.60086 12.8135 8.61216 12.8084 8.62457C12.8034 8.63699 12.8008 8.65028 12.8009 8.66369V17.2673H12.8018ZM7.62531 6.41063C7.77206 6.41031 7.91742 6.43892 8.05309 6.49483C8.18877 6.55074 8.31209 6.63284 8.416 6.73645C8.51991 6.84007 8.60238 6.96315 8.65868 7.09866C8.71498 7.23417 8.74402 7.37945 8.74413 7.52619L8.7555 18.4015C8.75582 18.6978 8.63843 18.9821 8.42915 19.1918C8.21986 19.4016 7.93583 19.5196 7.63953 19.5199C7.34324 19.5202 7.05895 19.4028 6.8492 19.1936C6.63946 18.9843 6.52145 18.7002 6.52113 18.4039L6.50975 7.52863C6.50954 7.38191 6.53822 7.2366 6.59417 7.10097C6.65012 6.96535 6.73223 6.84207 6.83582 6.73818C6.93941 6.63429 7.06245 6.55182 7.19791 6.49548C7.33337 6.43913 7.4786 6.41003 7.62531 6.40981V6.41063Z" fill="#808080"/>
<path d="M4.875 0.8125C4.3415 0.8125 3.81323 0.91758 3.32035 1.12174C2.82746 1.3259 2.37962 1.62514 2.00238 2.00238C1.24051 2.76425 0.8125 3.79756 0.8125 4.875V21.125C0.8125 22.2024 1.24051 23.2358 2.00238 23.9976C2.37962 24.3749 2.82746 24.6741 3.32035 24.8783C3.81323 25.0824 4.3415 25.1875 4.875 25.1875H21.125C22.2024 25.1875 23.2358 24.7595 23.9976 23.9976C24.7595 23.2358 25.1875 22.2024 25.1875 21.125V4.875C25.1875 4.3415 25.0824 3.81323 24.8783 3.32035C24.6741 2.82746 24.3749 2.37962 23.9976 2.00238C23.6204 1.62514 23.1725 1.3259 22.6797 1.12174C22.1868 0.91758 21.6585 0.8125 21.125 0.8125H4.875ZM2.4375 4.875C2.4375 4.22853 2.69431 3.60855 3.15143 3.15143C3.60855 2.69431 4.22853 2.4375 4.875 2.4375H21.125C21.7715 2.4375 22.3915 2.69431 22.8486 3.15143C23.3057 3.60855 23.5625 4.22853 23.5625 4.875V21.125C23.5625 21.7715 23.3057 22.3915 22.8486 22.8486C22.3915 23.3057 21.7715 23.5625 21.125 23.5625H4.875C4.22853 23.5625 3.60855 23.3057 3.15143 22.8486C2.69431 22.3915 2.4375 21.7715 2.4375 21.125V4.875Z" fill="#808080"/>
</g>
<defs>
<clipPath id="clip0_768_1027">
<rect width="26" height="26" fill="white"/>
</clipPath>
</defs>
</svg>
