<svg width="18" height="18" viewBox="0 0 18 18" fill="none" xmlns="http://www.w3.org/2000/svg">
<path d="M14.75 0C15.612 0 16.4386 0.34241 17.0481 0.951903C17.6576 1.5614 18 2.38805 18 3.25V14.75C18 15.612 17.6576 16.4386 17.0481 17.0481C16.4386 17.6576 15.612 18 14.75 18H3.25C2.38805 18 1.5614 17.6576 0.951903 17.0481C0.34241 16.4386 0 15.612 0 14.75V3.25C0 2.38805 0.34241 1.5614 0.951903 0.951903C1.5614 0.34241 2.38805 0 3.25 0H14.75ZM15.33 16.401L9.525 10.715C9.39836 10.5909 9.23184 10.5156 9.055 10.5026C8.87815 10.4896 8.70242 10.5397 8.559 10.644L8.475 10.714L2.668 16.401C2.85 16.465 3.046 16.5 3.25 16.5H14.75C14.953 16.5 15.149 16.465 15.33 16.401L9.525 10.715L15.33 16.4V16.401ZM14.75 1.5H3.25C2.78587 1.5 2.34075 1.68437 2.01256 2.01256C1.68437 2.34075 1.5 2.78587 1.5 3.25V14.75C1.5 14.958 1.536 15.158 1.603 15.344L7.426 9.643C7.82517 9.25223 8.35543 9.02391 8.91362 9.00247C9.47182 8.98103 10.018 9.168 10.446 9.527L10.574 9.643L16.396 15.345C16.463 15.159 16.5 14.959 16.5 14.75V3.25C16.5 2.78587 16.3156 2.34075 15.9874 2.01256C15.6592 1.68437 15.2141 1.5 14.75 1.5ZM12.252 3.5C12.8493 3.5 13.4221 3.73726 13.8444 4.1596C14.2667 4.58193 14.504 5.15473 14.504 5.752C14.504 6.34927 14.2667 6.92207 13.8444 7.3444C13.4221 7.76674 12.8493 8.004 12.252 8.004C11.6547 8.004 11.0819 7.76674 10.6596 7.3444C10.2373 6.92207 10 6.34927 10 5.752C10 5.15473 10.2373 4.58193 10.6596 4.1596C11.0819 3.73726 11.6547 3.5 12.252 3.5V3.5ZM12.252 5C12.0526 5 11.8613 5.07923 11.7203 5.22026C11.5792 5.36128 11.5 5.55256 11.5 5.752C11.5 5.95144 11.5792 6.14272 11.7203 6.28374C11.8613 6.42477 12.0526 6.504 12.252 6.504C12.4514 6.504 12.6427 6.42477 12.7837 6.28374C12.9248 6.14272 13.004 5.95144 13.004 5.752C13.004 5.55256 12.9248 5.36128 12.7837 5.22026C12.6427 5.07923 12.4514 5 12.252 5Z" fill="#536471"/>
</svg>
