<svg width="18" height="18" viewBox="0 0 18 18" fill="none" xmlns="http://www.w3.org/2000/svg">
<path d="M13.1662 0.973831C13.0115 1.05469 12.9377 1.12852 12.8639 1.27266C12.7092 1.57852 12.8322 1.97578 13.1311 2.14102C13.219 2.18672 13.3947 2.20078 14.1858 2.21485C15.0682 2.23243 15.1455 2.23946 15.2756 2.30977C15.4549 2.40469 15.5955 2.54532 15.694 2.72461C15.7643 2.85469 15.7678 2.92852 15.7854 3.81446C15.8029 4.81641 15.8135 4.88321 15.9822 5.03086C16.1756 5.19961 16.5272 5.25586 16.7276 5.15391C16.8541 5.08711 17.0018 4.92539 17.0475 4.80586C17.0721 4.74258 17.0861 4.10977 17.0861 3.02344C17.0897 1.20938 17.0897 1.2375 16.9033 1.06875C16.7346 0.914066 16.7381 0.914066 14.9697 0.914066C13.4897 0.917581 13.2576 0.924613 13.1662 0.973831Z" fill="#65A39C"/>
<path d="M14.133 2.97421C13.9783 3.04101 3.23459 13.7672 3.10451 13.9852C3.02717 14.1152 3.01662 14.168 3.03068 14.3578C3.04826 14.6426 3.15021 14.8043 3.38927 14.9238C3.60021 15.0293 3.79709 15.0363 3.99045 14.9449C4.08888 14.8992 5.79396 13.2117 9.58732 9.41835C15.3213 3.67382 15.1174 3.88828 15.1174 3.60351C15.1174 3.11835 14.5865 2.77734 14.133 2.97421Z" fill="#65A39C"/>
<path d="M1.24814 12.8602C1.10752 12.9516 0.998535 13.0746 0.952832 13.1941C0.896582 13.3348 0.896582 16.6394 0.952832 16.7414C0.973926 16.7871 1.02666 16.8609 1.06885 16.9031C1.23408 17.0894 1.20947 17.0859 3.02354 17.0859C4.65127 17.0859 4.71807 17.0824 4.85166 17.0156C5.03447 16.9207 5.1751 16.7098 5.19619 16.4883C5.21729 16.2598 5.10479 16.0277 4.91143 15.8977L4.7708 15.8027L3.81807 15.7852C2.97783 15.7711 2.85127 15.7605 2.74229 15.7008C2.57002 15.6094 2.39775 15.4406 2.30986 15.2754C2.23955 15.1453 2.23252 15.0715 2.21494 14.1855C2.19385 13.1273 2.19033 13.0992 1.94775 12.9129C1.77549 12.7828 1.41338 12.7547 1.24814 12.8602Z" fill="#65A39C"/>
</svg>
