<svg width="20" height="21" viewBox="0 0 20 21" fill="none" xmlns="http://www.w3.org/2000/svg">
<path d="M8.56857 0.538026C8.96189 0.191626 9.47197 0 10.0007 0C10.5295 0 11.0395 0.191626 11.4329 0.538026L19.29 7.45858C19.5134 7.6555 19.6921 7.89628 19.8144 8.16527C19.9367 8.43426 19.9999 8.72546 20 9.01997V18.8995C20 19.4566 19.7742 19.9908 19.3724 20.3848C18.9705 20.7787 18.4255 21 17.8571 21H14.2857C13.7174 21 13.1723 20.7787 12.7705 20.3848C12.3686 19.9908 12.1429 19.4566 12.1429 18.8995V13.9982C12.1429 13.8125 12.0676 13.6344 11.9336 13.5031C11.7997 13.3718 11.618 13.2981 11.4286 13.2981H8.57143C8.38199 13.2981 8.20031 13.3718 8.06635 13.5031C7.9324 13.6344 7.85714 13.8125 7.85714 13.9982V18.8995C7.85714 19.4566 7.63138 19.9908 7.22951 20.3848C6.82765 20.7787 6.28261 21 5.71429 21H2.14286C1.57454 21 1.02949 20.7787 0.627628 20.3848C0.225765 19.9908 0 19.4566 0 18.8995V9.01997C0 8.42482 0.257143 7.85768 0.711428 7.45858L8.56857 0.538026V0.538026ZM10.4771 1.57989C10.3461 1.46455 10.1761 1.40076 10 1.40076C9.82386 1.40076 9.65393 1.46455 9.52286 1.57989L1.66571 8.50044C1.59128 8.56593 1.53171 8.64602 1.49086 8.73552C1.45001 8.82502 1.42879 8.92192 1.42857 9.01997V18.8995C1.42857 19.0852 1.50383 19.2633 1.63778 19.3946C1.77174 19.5259 1.95342 19.5996 2.14286 19.5996H5.71429C5.90373 19.5996 6.08541 19.5259 6.21936 19.3946C6.35332 19.2633 6.42857 19.0852 6.42857 18.8995V13.9982C6.42857 13.4411 6.65434 12.9069 7.0562 12.5129C7.45806 12.119 8.00311 11.8977 8.57143 11.8977H11.4286C11.9969 11.8977 12.5419 12.119 12.9438 12.5129C13.3457 12.9069 13.5714 13.4411 13.5714 13.9982V18.8995C13.5714 19.0852 13.6467 19.2633 13.7806 19.3946C13.9146 19.5259 14.0963 19.5996 14.2857 19.5996H17.8571C18.0466 19.5996 18.2283 19.5259 18.3622 19.3946C18.4962 19.2633 18.5714 19.0852 18.5714 18.8995V9.01997C18.5712 8.92192 18.55 8.82502 18.5091 8.73552C18.4683 8.64602 18.4087 8.56593 18.3343 8.50044L10.4771 1.57989Z" fill="black"/>
</svg>
