<svg width="21" height="21" viewBox="0 0 21 21" fill="none" xmlns="http://www.w3.org/2000/svg">
<path d="M10.5 0C16.2992 0 21 4.70061 21 10.4995C21 16.2983 16.2992 20.9989 10.5 20.9989C8.82419 21.0013 7.17237 20.6008 5.68366 19.8314L1.66636 20.9517C1.44223 21.0142 1.20549 21.0161 0.980419 20.957C0.755343 20.898 0.550015 20.7801 0.385474 20.6156C0.220933 20.4511 0.103094 20.2457 0.0440323 20.0207C-0.0150296 19.7956 -0.0131913 19.5589 0.0493587 19.3348L1.17076 15.3208C0.399378 13.8309 -0.00217224 12.1772 8.83779e-06 10.4995C8.83779e-06 4.70061 4.70086 0 10.5 0ZM10.5 1.57492C8.13295 1.57492 5.86284 2.51518 4.18908 4.18886C2.51532 5.86254 1.57501 8.13253 1.57501 10.4995C1.57501 12.0429 1.96666 13.5265 2.70166 14.8431L2.85916 15.1266L1.69156 19.3096L5.87791 18.142L6.16141 18.2995C7.35251 18.9617 8.67945 19.3424 10.0405 19.4123C11.4015 19.4822 12.7604 19.2395 14.0131 18.7028C15.2658 18.1661 16.379 17.3497 17.2672 16.3162C18.1554 15.2826 18.7952 14.0594 19.1374 12.7403C19.4796 11.4213 19.5151 10.0413 19.2413 8.70636C18.9675 7.3714 18.3916 6.11687 17.5577 5.03897C16.7239 3.96108 15.6543 3.08844 14.4309 2.48798C13.2075 1.88752 11.8628 1.57518 10.5 1.57492ZM7.08751 11.5494H11.8104C12.0099 11.5495 12.202 11.6253 12.3478 11.7615C12.4936 11.8977 12.5822 12.0842 12.5958 12.2832C12.6094 12.4823 12.547 12.679 12.4211 12.8338C12.2951 12.9886 12.1152 13.0898 11.9175 13.117L11.8104 13.1243H7.08751C6.88798 13.1243 6.69592 13.0485 6.55013 12.9123C6.40433 12.7761 6.31568 12.5896 6.30208 12.3906C6.28848 12.1915 6.35095 11.9947 6.47686 11.8399C6.60277 11.6852 6.78274 11.584 6.98041 11.5568L7.08751 11.5494ZM7.08751 7.8746H13.9178C14.1172 7.87493 14.3091 7.95091 14.4547 8.0872C14.6003 8.22349 14.6887 8.40994 14.7022 8.60891C14.7156 8.80788 14.6531 9.00455 14.5272 9.15921C14.4013 9.31387 14.2214 9.41499 14.0238 9.44217L13.9178 9.44952H7.08751C6.88798 9.44946 6.69592 9.37367 6.55013 9.23746C6.40433 9.10126 6.31568 8.91479 6.30208 8.71574C6.28848 8.51669 6.35095 8.31989 6.47686 8.16512C6.60277 8.01036 6.78274 7.90915 6.98041 7.88195L7.08751 7.8746Z" fill="black"/>
</svg>
