<svg width="26" height="20" viewBox="0 0 26 20" fill="none" xmlns="http://www.w3.org/2000/svg">
<path d="M24.375 19.75C24.375 19.75 26 19.75 26 18.125C26 16.5 24.375 11.625 17.875 11.625C11.375 11.625 9.75 16.5 9.75 18.125C9.75 19.75 11.375 19.75 11.375 19.75H24.375ZM11.4107 18.125C11.3987 18.1233 11.3868 18.1212 11.375 18.1185C11.3766 17.6895 11.6464 16.4448 12.61 15.3235C13.507 14.2721 15.0832 13.25 17.875 13.25C20.6651 13.25 22.2414 14.2737 23.14 15.3235C24.1036 16.4448 24.3717 17.6911 24.375 18.1185L24.362 18.1218C24.3544 18.123 24.3469 18.1241 24.3392 18.125H11.4107V18.125ZM17.875 8.375C18.737 8.375 19.5636 8.03259 20.1731 7.4231C20.7826 6.8136 21.125 5.98695 21.125 5.125C21.125 4.26305 20.7826 3.4364 20.1731 2.8269C19.5636 2.21741 18.737 1.875 17.875 1.875C17.013 1.875 16.1864 2.21741 15.5769 2.8269C14.9674 3.4364 14.625 4.26305 14.625 5.125C14.625 5.98695 14.9674 6.8136 15.5769 7.4231C16.1864 8.03259 17.013 8.375 17.875 8.375ZM22.75 5.125C22.75 5.76519 22.6239 6.39912 22.3789 6.99058C22.1339 7.58204 21.7748 8.11946 21.3221 8.57215C20.8695 9.02483 20.332 9.38392 19.7406 9.62891C19.1491 9.8739 18.5152 10 17.875 10C17.2348 10 16.6009 9.8739 16.0094 9.62891C15.418 9.38392 14.8805 9.02483 14.4279 8.57215C13.9752 8.11946 13.6161 7.58204 13.3711 6.99058C13.1261 6.39912 13 5.76519 13 5.125C13 3.83207 13.5136 2.59209 14.4279 1.67785C15.3421 0.763615 16.5821 0.25 17.875 0.25C19.1679 0.25 20.4079 0.763615 21.3221 1.67785C22.2364 2.59209 22.75 3.83207 22.75 5.125V5.125ZM11.271 12.08C10.621 11.8753 9.95091 11.7408 9.27225 11.6786C8.89091 11.6424 8.50806 11.6245 8.125 11.625C1.625 11.625 0 16.5 0 18.125C0 19.2089 0.541125 19.75 1.625 19.75H8.476C8.2351 19.2427 8.11496 18.6865 8.125 18.125C8.125 16.4838 8.73763 14.8067 9.89625 13.406C10.2911 12.9282 10.751 12.4814 11.271 12.08ZM7.995 13.25C7.03325 14.6951 6.51372 16.3892 6.5 18.125H1.625C1.625 17.7025 1.8915 16.4513 2.86 15.3235C3.74563 14.29 5.2845 13.2825 7.995 13.2516V13.25ZM2.4375 5.9375C2.4375 4.64457 2.95111 3.40459 3.86535 2.49035C4.77959 1.57611 6.01957 1.0625 7.3125 1.0625C8.60543 1.0625 9.84541 1.57611 10.7596 2.49035C11.6739 3.40459 12.1875 4.64457 12.1875 5.9375C12.1875 7.23043 11.6739 8.47041 10.7596 9.38465C9.84541 10.2989 8.60543 10.8125 7.3125 10.8125C6.01957 10.8125 4.77959 10.2989 3.86535 9.38465C2.95111 8.47041 2.4375 7.23043 2.4375 5.9375V5.9375ZM7.3125 2.6875C6.45055 2.6875 5.6239 3.02991 5.0144 3.6394C4.40491 4.2489 4.0625 5.07555 4.0625 5.9375C4.0625 6.79945 4.40491 7.6261 5.0144 8.2356C5.6239 8.84509 6.45055 9.1875 7.3125 9.1875C8.17445 9.1875 9.0011 8.84509 9.6106 8.2356C10.2201 7.6261 10.5625 6.79945 10.5625 5.9375C10.5625 5.07555 10.2201 4.2489 9.6106 3.6394C9.0011 3.02991 8.17445 2.6875 7.3125 2.6875Z" fill="#111111"/>
</svg>
