<svg width="17" height="21" viewBox="0 0 17 21" fill="none" xmlns="http://www.w3.org/2000/svg">
<path d="M7.08333 8.53125C7.08333 8.3572 7.15796 8.19028 7.2908 8.06721C7.42364 7.94414 7.6038 7.875 7.79167 7.875H12.75C12.9379 7.875 13.118 7.94414 13.2509 8.06721C13.3837 8.19028 13.4583 8.3572 13.4583 8.53125C13.4583 8.7053 13.3837 8.87222 13.2509 8.99529C13.118 9.11836 12.9379 9.1875 12.75 9.1875H7.79167C7.6038 9.1875 7.42364 9.11836 7.2908 8.99529C7.15796 8.87222 7.08333 8.7053 7.08333 8.53125ZM7.08333 12.4688C7.08333 12.2947 7.15796 12.1278 7.2908 12.0047C7.42364 11.8816 7.6038 11.8125 7.79167 11.8125H12.75C12.9379 11.8125 13.118 11.8816 13.2509 12.0047C13.3837 12.1278 13.4583 12.2947 13.4583 12.4688C13.4583 12.6428 13.3837 12.8097 13.2509 12.9328C13.118 13.0559 12.9379 13.125 12.75 13.125H7.79167C7.6038 13.125 7.42364 13.0559 7.2908 12.9328C7.15796 12.8097 7.08333 12.6428 7.08333 12.4688ZM7.08333 16.4062C7.08333 16.2322 7.15796 16.0653 7.2908 15.9422C7.42364 15.8191 7.6038 15.75 7.79167 15.75H12.75C12.9379 15.75 13.118 15.8191 13.2509 15.9422C13.3837 16.0653 13.4583 16.2322 13.4583 16.4062C13.4583 16.5803 13.3837 16.7472 13.2509 16.8703C13.118 16.9934 12.9379 17.0625 12.75 17.0625H7.79167C7.6038 17.0625 7.42364 16.9934 7.2908 16.8703C7.15796 16.7472 7.08333 16.5803 7.08333 16.4062ZM5.66667 8.53125C5.66667 8.79232 5.55473 9.0427 5.35547 9.22731C5.15621 9.41191 4.88596 9.51562 4.60417 9.51562C4.32237 9.51562 4.05212 9.41191 3.85287 9.22731C3.65361 9.0427 3.54167 8.79232 3.54167 8.53125C3.54167 8.27018 3.65361 8.0198 3.85287 7.83519C4.05212 7.65059 4.32237 7.54688 4.60417 7.54688C4.88596 7.54688 5.15621 7.65059 5.35547 7.83519C5.55473 8.0198 5.66667 8.27018 5.66667 8.53125ZM5.66667 12.4688C5.66667 12.7298 5.55473 12.9802 5.35547 13.1648C5.15621 13.3494 4.88596 13.4531 4.60417 13.4531C4.32237 13.4531 4.05212 13.3494 3.85287 13.1648C3.65361 12.9802 3.54167 12.7298 3.54167 12.4688C3.54167 12.2077 3.65361 11.9573 3.85287 11.7727C4.05212 11.5881 4.32237 11.4844 4.60417 11.4844C4.88596 11.4844 5.15621 11.5881 5.35547 11.7727C5.55473 11.9573 5.66667 12.2077 5.66667 12.4688ZM4.60417 17.3906C4.88596 17.3906 5.15621 17.2869 5.35547 17.1023C5.55473 16.9177 5.66667 16.6673 5.66667 16.4062C5.66667 16.1452 5.55473 15.8948 5.35547 15.7102C5.15621 15.5256 4.88596 15.4219 4.60417 15.4219C4.32237 15.4219 4.05212 15.5256 3.85287 15.7102C3.65361 15.8948 3.54167 16.1452 3.54167 16.4062C3.54167 16.6673 3.65361 16.9177 3.85287 17.1023C4.05212 17.2869 4.32237 17.3906 4.60417 17.3906ZM4.37042 1.3125C4.51696 0.928491 4.78845 0.596044 5.14747 0.360975C5.50649 0.125905 5.93537 -0.000213255 6.375 2.70686e-07H10.625C11.0646 -0.000213255 11.4935 0.125905 11.8525 0.360975C12.2115 0.596044 12.483 0.928491 12.6296 1.3125H14.875C15.4386 1.3125 15.9791 1.51992 16.3776 1.88913C16.7761 2.25835 17 2.75911 17 3.28125V19.0312C17 19.5534 16.7761 20.0542 16.3776 20.4234C15.9791 20.7926 15.4386 21 14.875 21H2.125C1.56141 21 1.02091 20.7926 0.622398 20.4234C0.223883 20.0542 0 19.5534 0 19.0312V3.28125C0 2.75911 0.223883 2.25835 0.622398 1.88913C1.02091 1.51992 1.56141 1.3125 2.125 1.3125H4.37042ZM6.375 1.3125C6.18714 1.3125 6.00697 1.38164 5.87413 1.50471C5.74129 1.62778 5.66667 1.7947 5.66667 1.96875C5.66667 2.1428 5.74129 2.30972 5.87413 2.43279C6.00697 2.55586 6.18714 2.625 6.375 2.625H10.625C10.8129 2.625 10.993 2.55586 11.1259 2.43279C11.2587 2.30972 11.3333 2.1428 11.3333 1.96875C11.3333 1.7947 11.2587 1.62778 11.1259 1.50471C10.993 1.38164 10.8129 1.3125 10.625 1.3125H6.375ZM4.37042 2.625H2.125C1.93714 2.625 1.75697 2.69414 1.62413 2.81721C1.49129 2.94028 1.41667 3.1072 1.41667 3.28125V19.0312C1.41667 19.2053 1.49129 19.3722 1.62413 19.4953C1.75697 19.6184 1.93714 19.6875 2.125 19.6875H14.875C15.0629 19.6875 15.243 19.6184 15.3759 19.4953C15.5087 19.3722 15.5833 19.2053 15.5833 19.0312V3.28125C15.5833 3.1072 15.5087 2.94028 15.3759 2.81721C15.243 2.69414 15.0629 2.625 14.875 2.625H12.6296C12.483 3.00901 12.2115 3.34146 11.8525 3.57653C11.4935 3.81159 11.0646 3.93771 10.625 3.9375H6.375C5.93537 3.93771 5.50649 3.81159 5.14747 3.57653C4.78845 3.34146 4.51696 3.00901 4.37042 2.625Z" fill="black"/>
</svg>
