<svg width="28" height="28" viewBox="0 0 28 28" fill="none" xmlns="http://www.w3.org/2000/svg">
<path d="M18.375 1.75C17.1453 1.74972 15.9326 2.0375 14.8341 2.59027C13.7356 3.14305 12.7819 3.94545 12.0493 4.93318C11.3168 5.92091 10.8258 7.0665 10.6157 8.27814C10.4056 9.48979 10.4823 10.7338 10.8395 11.9105L1.75 21V26.25H7L16.0895 17.1605C17.1727 17.4893 18.314 17.5807 19.4357 17.4285C20.5574 17.2763 21.633 16.8841 22.5894 16.2785C23.5458 15.673 24.3604 14.8684 24.9777 13.9196C25.5951 12.9708 26.0006 11.9 26.1666 10.7803C26.3327 9.66057 26.2554 8.51821 25.94 7.43106C25.6247 6.34391 25.0787 5.33753 24.3392 4.48049C23.5997 3.62345 22.6841 2.93591 21.6549 2.46471C20.6257 1.99351 19.507 1.74974 18.375 1.75ZM18.375 15.75C17.7726 15.7497 17.1735 15.6606 16.597 15.4858L15.5934 15.1813L14.8523 15.9224L12.0689 18.7057L10.8622 17.5L9.625 18.7372L10.8316 19.9439L9.44388 21.3316L8.23725 20.125L7 21.3622L8.20662 22.5689L6.2755 24.5H3.5V21.7245L12.0767 13.1477L12.8187 12.4066L12.5142 11.403C12.1403 10.1701 12.1646 8.8507 12.5837 7.63242C13.0028 6.41414 13.7954 5.35905 14.8488 4.61722C15.9021 3.8754 17.1626 3.48461 18.4509 3.50046C19.7391 3.51631 20.9896 3.93799 22.0244 4.7055C23.0592 5.47302 23.8256 6.54729 24.2146 7.77551C24.6036 9.00373 24.5955 10.3234 24.1912 11.5467C23.787 12.77 23.0074 13.8347 21.9632 14.5893C20.9189 15.344 19.6634 15.7501 18.375 15.75Z" fill="#808080"/>
<path d="M19.25 10.5C20.2165 10.5 21 9.7165 21 8.75C21 7.7835 20.2165 7 19.25 7C18.2835 7 17.5 7.7835 17.5 8.75C17.5 9.7165 18.2835 10.5 19.25 10.5Z" fill="#808080"/>
</svg>
