<svg width="16" height="21" viewBox="0 0 16 21" fill="none" xmlns="http://www.w3.org/2000/svg">
<path d="M13.751 12.5973C14.0464 12.5973 14.339 12.6584 14.6119 12.7772C14.8848 12.8959 15.1328 13.07 15.3416 13.2894C15.5505 13.5089 15.7161 13.7694 15.8291 14.0561C15.9421 14.3427 16.0001 14.65 16 14.9602V15.5641C16 16.503 15.68 17.4114 15.099 18.1245C13.529 20.0496 11.142 21 7.997 21C4.851 21 2.465 20.0496 0.899 18.1224C0.319247 17.4098 0.00048605 16.5035 0 15.5662V14.9592C-2.92039e-08 14.6489 0.0582055 14.3417 0.171291 14.0551C0.284376 13.7685 0.450126 13.508 0.65907 13.2887C0.868015 13.0694 1.11606 12.8954 1.38904 12.7768C1.66201 12.6581 1.95457 12.5971 2.25 12.5973H13.751ZM13.751 14.1726H2.249C2.15056 14.1726 2.05308 14.193 1.96214 14.2326C1.8712 14.2722 1.78859 14.3302 1.71902 14.4033C1.64946 14.4765 1.59431 14.5633 1.55673 14.6589C1.51915 14.7545 1.49987 14.8569 1.5 14.9602V15.5662C1.5 16.1281 1.692 16.6721 2.04 17.0995C3.293 18.6423 5.259 19.4247 7.997 19.4247C10.735 19.4247 12.703 18.6423 13.959 17.1006C14.3076 16.6724 14.4992 16.1275 14.499 15.5641V14.9592C14.499 14.7508 14.4202 14.5508 14.28 14.4033C14.1397 14.2559 13.9495 14.1729 13.751 14.1726ZM7.997 0C8.65361 -1.02755e-08 9.30379 0.135822 9.91042 0.399712C10.517 0.663602 11.0682 1.05039 11.5325 1.538C11.9968 2.0256 12.3651 2.60447 12.6164 3.24156C12.8677 3.87865 12.997 4.56147 12.997 5.25105C12.997 5.94063 12.8677 6.62345 12.6164 7.26054C12.3651 7.89763 11.9968 8.4765 11.5325 8.9641C11.0682 9.45171 10.517 9.8385 9.91042 10.1024C9.30379 10.3663 8.65361 10.5021 7.997 10.5021C6.67092 10.5021 5.39915 9.94887 4.46147 8.9641C3.52378 7.97934 2.997 6.64372 2.997 5.25105C2.997 3.85839 3.52378 2.52276 4.46147 1.538C5.39915 0.553234 6.67092 0 7.997 0ZM7.997 1.57532C7.53737 1.57532 7.08225 1.67039 6.65761 1.85511C6.23297 2.03984 5.84713 2.31059 5.52213 2.65191C5.19712 2.99324 4.93931 3.39845 4.76342 3.84441C4.58753 4.29037 4.497 4.76835 4.497 5.25105C4.497 5.73376 4.58753 6.21173 4.76342 6.65769C4.93931 7.10365 5.19712 7.50886 5.52213 7.85019C5.84713 8.19151 6.23297 8.46227 6.65761 8.64699C7.08225 8.83171 7.53737 8.92679 7.997 8.92679C8.92526 8.92679 9.8155 8.53952 10.4719 7.85019C11.1283 7.16085 11.497 6.22592 11.497 5.25105C11.497 4.27619 11.1283 3.34125 10.4719 2.65191C9.8155 1.96258 8.92526 1.57532 7.997 1.57532Z" fill="white"/>
</svg>
