<svg width="30" height="30" viewBox="0 0 30 30" fill="none" xmlns="http://www.w3.org/2000/svg">
<path d="M23.75 14.9375C23.75 12.5 22.9008 10.4321 21.2025 8.73375C19.505 7.03625 17.4375 6.1875 15 6.1875V3.6875C16.5625 3.6875 18.0262 3.98417 19.3912 4.5775C20.7554 5.17167 21.9429 5.97417 22.9538 6.985C23.9638 7.995 24.7658 9.1825 25.36 10.5475C25.9533 11.9117 26.25 13.375 26.25 14.9375H23.75ZM18.75 14.9375C18.75 13.8958 18.3854 13.0104 17.6562 12.2812C16.9271 11.5521 16.0417 11.1875 15 11.1875V8.6875C16.7292 8.6875 18.2033 9.29667 19.4225 10.515C20.6408 11.7342 21.25 13.2083 21.25 14.9375H18.75ZM24.9375 26.25C22.25 26.25 19.6304 25.6508 17.0788 24.4525C14.5262 23.255 12.2658 21.6717 10.2975 19.7025C8.32833 17.7342 6.745 15.4738 5.5475 12.9213C4.34917 10.3696 3.75 7.75 3.75 5.0625C3.75 4.6875 3.875 4.375 4.125 4.125C4.375 3.875 4.6875 3.75 5.0625 3.75H10.125C10.4167 3.75 10.6771 3.84375 10.9063 4.03125C11.1354 4.21875 11.2708 4.45833 11.3125 4.75L12.125 9.125C12.1667 9.41667 12.1617 9.68208 12.11 9.92125C12.0575 10.1612 11.9375 10.375 11.75 10.5625L8.75 13.625C9.625 15.125 10.7188 16.5312 12.0312 17.8438C13.3438 19.1562 14.7917 20.2917 16.375 21.25L19.3125 18.3125C19.5 18.125 19.745 17.9842 20.0475 17.89C20.3492 17.7967 20.6458 17.7708 20.9375 17.8125L25.25 18.6875C25.5417 18.75 25.7812 18.8904 25.9688 19.1087C26.1562 19.3279 26.25 19.5833 26.25 19.875V24.9375C26.25 25.3125 26.125 25.625 25.875 25.875C25.625 26.125 25.3125 26.25 24.9375 26.25Z" fill="black"/>
</svg>
