<svg width="22" height="22" viewBox="0 0 22 22" fill="none" xmlns="http://www.w3.org/2000/svg">
<path d="M7.33333 1.57143C8.05853 1.57143 8.76744 1.80184 9.37042 2.23351C9.9734 2.66519 10.4434 3.27875 10.7209 3.9966C10.9984 4.71445 11.071 5.50436 10.9295 6.26643C10.7881 7.02849 10.4389 7.7285 9.92606 8.27792C9.41327 8.82734 8.75993 9.2015 8.04867 9.35309C7.3374 9.50467 6.60016 9.42687 5.93016 9.12953C5.26017 8.83218 4.68751 8.32865 4.28461 7.6826C3.88171 7.03655 3.66667 6.277 3.66667 5.5C3.66667 4.45808 4.05298 3.45883 4.74061 2.72208C5.42824 1.98533 6.36087 1.57143 7.33333 1.57143ZM7.33333 0C6.31806 0 5.32558 0.322569 4.48141 0.926917C3.63723 1.53126 2.97928 2.39025 2.59075 3.39524C2.20222 4.40023 2.10056 5.5061 2.29864 6.573C2.49671 7.63989 2.98561 8.6199 3.70352 9.38909C4.42143 10.1583 5.3361 10.6821 6.33187 10.8943C7.32764 11.1065 8.35978 10.9976 9.29778 10.5813C10.2358 10.1651 11.0375 9.46011 11.6015 8.55564C12.1656 7.65117 12.4667 6.5878 12.4667 5.5C12.4667 4.04131 11.9258 2.64236 10.9631 1.61091C10.0005 0.579463 8.69478 0 7.33333 0ZM14.6667 22H13.2V18.0714C13.2 17.0295 12.8137 16.0303 12.1261 15.2935C11.4384 14.5568 10.5058 14.1429 9.53333 14.1429H5.13333C4.16087 14.1429 3.22824 14.5568 2.54061 15.2935C1.85298 16.0303 1.46667 17.0295 1.46667 18.0714V22H0V18.0714C0 16.6127 0.540832 15.2138 1.50352 14.1823C2.46621 13.1509 3.77189 12.5714 5.13333 12.5714H9.53333C10.8948 12.5714 12.2005 13.1509 13.1631 14.1823C14.1258 15.2138 14.6667 16.6127 14.6667 18.0714V22ZM14.6667 1.57143H22V3.14286H14.6667V1.57143ZM14.6667 5.5H22V7.07143H14.6667V5.5ZM14.6667 9.42857H19.8V11H14.6667V9.42857Z" fill="#666666"/>
</svg>
