<svg width="30" height="30" viewBox="0 0 30 30" fill="none" xmlns="http://www.w3.org/2000/svg">
<path d="M5.625 2.5C3.9 2.5 2.5 3.9 2.5 5.625V8.53C2.50067 9.19835 2.67994 9.85437 3.01927 10.4302C3.35859 11.006 3.84564 11.4806 4.43 11.805L11.62 15.8025C10.114 16.5628 8.9083 17.8086 8.19773 19.3387C7.48716 20.8688 7.3132 22.5938 7.70398 24.2349C8.09475 25.8761 9.02742 27.3376 10.3513 28.3832C11.6752 29.4289 13.313 29.9977 15 29.9977C16.687 29.9977 18.3248 29.4289 19.6487 28.3832C20.9726 27.3376 21.9053 25.8761 22.296 24.2349C22.6868 22.5938 22.5128 20.8688 21.8023 19.3387C21.0917 17.8086 19.886 16.5628 18.38 15.8025L25.5725 11.8075C26.1568 11.4826 26.6435 11.0074 26.9824 10.4312C27.3213 9.8549 27.5 9.19852 27.5 8.53V5.625C27.5 3.9 26.1 2.5 24.375 2.5H5.625ZM12.5 13.43V5H17.5V13.43L15 14.82L12.5 13.43ZM20 22.5C20 23.8261 19.4732 25.0979 18.5355 26.0355C17.5979 26.9732 16.3261 27.5 15 27.5C13.6739 27.5 12.4021 26.9732 11.4645 26.0355C10.5268 25.0979 10 23.8261 10 22.5C10 21.1739 10.5268 19.9021 11.4645 18.9645C12.4021 18.0268 13.6739 17.5 15 17.5C16.3261 17.5 17.5979 18.0268 18.5355 18.9645C19.4732 19.9021 20 21.1739 20 22.5Z" fill="black"/>
</svg>
