<svg width="18" height="24" viewBox="0 0 18 24" fill="none" xmlns="http://www.w3.org/2000/svg">
<path d="M6.38438 13.3714L7.36875 10.1143L4.78125 8H7.9875L9 4.8L10.0125 8H13.2188L10.6031 10.1143L11.5875 13.3714L9 11.3429L6.38438 13.3714ZM2.25 24V15.1714C1.5375 14.3714 0.984375 13.4571 0.590625 12.4286C0.196875 11.4 0 10.3048 0 9.14286C0 6.59048 0.871875 4.42857 2.61562 2.65714C4.35937 0.885714 6.4875 0 9 0C11.5125 0 13.6406 0.885714 15.3844 2.65714C17.1281 4.42857 18 6.59048 18 9.14286C18 10.3048 17.8031 11.4 17.4094 12.4286C17.0156 13.4571 16.4625 14.3714 15.75 15.1714V24L9 21.7143L2.25 24ZM9 16C10.875 16 12.4688 15.3333 13.7812 14C15.0938 12.6667 15.75 11.0476 15.75 9.14286C15.75 7.2381 15.0938 5.61905 13.7812 4.28571C12.4688 2.95238 10.875 2.28571 9 2.28571C7.125 2.28571 5.53125 2.95238 4.21875 4.28571C2.90625 5.61905 2.25 7.2381 2.25 9.14286C2.25 11.0476 2.90625 12.6667 4.21875 14C5.53125 15.3333 7.125 16 9 16ZM4.5 20.6L9 19.4286L13.5 20.6V17.0571C12.8438 17.4381 12.1361 17.7379 11.3771 17.9566C10.6174 18.176 9.825 18.2857 9 18.2857C8.175 18.2857 7.38263 18.176 6.62288 17.9566C5.86387 17.7379 5.15625 17.4381 4.5 17.0571V20.6Z" fill="#666666"/>
</svg>
