<svg width="75" height="75" viewBox="0 0 75 75" fill="none" xmlns="http://www.w3.org/2000/svg">
<path d="M33.4784 34.9554L32.4593 40.0758L29.0452 41.25L31.0657 73.1241L44.0562 73.0504L44.6629 40.6479L42.4825 39.962L41.3713 34.7385L33.4784 34.9554Z" fill="#F0BA7D"/>
<path d="M28.2703 50.1431C33.9541 52.8987 39.8008 53.4772 45.9557 50.2991L45.7459 74.0884C43.0922 74.6836 40.3332 75 37.5 75C34.2398 75 31.0772 74.5834 28.0617 73.8015L28.2703 50.1431Z" fill="#21D0C3"/>
<path d="M43.5789 40.3522L53.4801 43.0525C56.0476 43.8451 58.3416 45.3633 58.415 48.0916L58.9581 68.255C56.7016 69.8323 54.2635 71.1665 51.6816 72.2225L51.0497 61.0714L49.3157 73.0983C45.6012 74.3319 41.6288 75 37.5001 75C37.3923 75 37.2854 74.9968 37.1777 74.9959L37.1736 64.7732L43.5789 40.3522Z" fill="white"/>
<path d="M43.4846 40.2822L44.7894 40.8085L49.24 47.4899L44.0232 47.406L47.2567 49.1363L37.1738 64.7733L43.4846 40.2822Z" fill="#EEF3F7"/>
<path d="M31.9957 40.2501L22.0484 42.7753C19.467 43.5228 17.147 45.0001 17.0253 47.7267L16.108 68.3008C18.3447 69.8572 20.7589 71.1754 23.314 72.221L24.1607 60.8345L25.7098 73.1068C29.3202 74.3026 33.174 74.9622 37.1776 74.996L37.1735 64.7733L31.9957 40.2501Z" fill="white"/>
<path d="M32.0912 40.1815L30.5355 40.7774L26.2099 47.2868L31.4275 47.2951L28.1638 48.968L37.1738 64.7732L32.0912 40.1815Z" fill="#EEF3F7"/>
<path d="M26.7448 22.6759C26.5786 24.354 26.9146 28.08 28.9503 27.9382C28.9503 27.9382 31.8803 36.4775 37.5212 37.4445C42.3913 36.5546 45.3538 28.8205 45.5786 28.0847C46.2494 28.3138 48.1269 25.1908 46.6876 22.6358C46.2749 21.9031 45.1063 22.4963 45.1063 22.4963L45.0164 20.3628C37.3207 21.1101 32.5219 13.6668 32.5219 13.6668C29.5882 16.858 28.8825 18.6794 28.5687 22.6484C28.5687 22.6484 28.0178 22.3063 27.4062 22.2933C27.2219 22.2892 26.9855 22.4497 26.7448 22.6759Z" fill="#FED298"/>
<path d="M32.4592 40.0758L33.456 35.0697C30.5684 32.2266 29.0627 27.9382 29.0627 27.9382C27.0951 28.1577 26.3049 22.735 27.6287 22.5456C28.2341 22.4588 28.6395 22.6485 28.6395 22.6485C28.9376 18.4579 29.7447 17.1836 32.5217 13.667C32.5217 13.667 37.373 21.8291 45.0627 21.0816L45.1727 22.8415C45.5363 22.484 46.2009 22.1481 46.7546 23.0588C47.6555 24.5405 46.477 27.9079 45.386 28.1134C45.2314 28.6326 44.0172 32.4633 41.4454 35.0883L42.4824 39.9623C45.368 40.8967 48.1501 41.6184 50.9429 42.3609C49.5242 33.7128 48.7112 24.3545 47.0172 16.3661C45.3916 8.70044 36.5048 6.55649 31.3944 9.96094C31.3944 9.96094 26.9878 11.7365 26.1834 17.625C25.3792 23.5132 25.6869 24.0807 25.6869 24.0807L24.267 42.2124C26.8998 41.544 29.9483 40.9392 32.4592 40.0758Z" fill="#666666"/>
<path d="M51.0538 61.3644C49.5905 61.1117 48.6089 59.7205 48.8615 58.2571C49.1142 56.794 50.5055 55.812 51.9687 56.0646C53.4322 56.3172 54.4137 57.7088 54.1611 59.1724C53.9084 60.6356 52.5171 61.617 51.0538 61.3644Z" fill="#FEFEFE"/>
<path d="M51.2727 60.0957C50.5106 59.9641 49.9988 59.2386 50.1305 58.4764C50.262 57.7137 50.9873 57.2026 51.7494 57.3341C52.5122 57.4658 53.0235 58.1905 52.8918 58.9532C52.7604 59.7155 52.0355 60.2272 51.2727 60.0957Z" fill="#EBECEC"/>
<path d="M51.4375 57.4841L52.0534 57.5903L52.3844 55.6729L51.7689 55.5667L51.4375 57.4841Z" fill="#FEFEFE"/>
<path d="M51.1979 60.0826C50.4768 59.9581 49.9932 59.2724 50.1176 58.5511C50.2421 57.8303 50.9274 57.3466 51.6486 57.4709C52.3696 57.5955 52.8535 58.2809 52.7291 59.0019C52.6046 59.7233 51.9189 60.2071 51.1979 60.0826Z" fill="#FEFEFE"/>
</svg>
