<svg width="18" height="18" viewBox="0 0 18 18" fill="none" xmlns="http://www.w3.org/2000/svg">
<path d="M8.64844 0.021093C7.80469 0.175781 7.12969 0.667968 6.76758 1.39922C6.5918 1.75781 6.525 2.03906 6.525 2.44336C6.52148 2.925 6.58828 3.21328 6.78164 3.60352L6.94687 3.93398L5.71641 3.94453C4.49297 3.95859 4.47891 3.95859 4.17305 4.05352C2.95664 4.42969 2.1375 5.3332 1.8668 6.5918C1.8457 6.68672 1.53281 8.4375 1.1707 10.4766L0.513281 14.1855L0.509766 14.748C0.509766 15.2332 0.520312 15.3492 0.590625 15.5918C0.752344 16.1508 1.05117 16.6535 1.48008 17.0824C1.8457 17.4445 2.38711 17.7469 2.95312 17.9016L3.25195 17.9824H9H14.748L15.0469 17.9016C15.6129 17.7469 16.1543 17.4445 16.5199 17.0824C16.9488 16.6535 17.2477 16.1508 17.4094 15.5918C17.4797 15.3492 17.4902 15.2332 17.4902 14.748L17.4867 14.1855L16.8293 10.4766C16.4672 8.4375 16.1543 6.68672 16.1332 6.5918C15.8625 5.3332 15.0434 4.42969 13.827 4.05352C13.5211 3.95859 13.507 3.95859 12.2977 3.94453C11.6227 3.9375 11.0742 3.92344 11.0742 3.90937C11.0742 3.89531 11.1445 3.74766 11.2289 3.57891C11.4117 3.20977 11.4785 2.91445 11.475 2.44336C11.4715 1.36406 10.7648 0.435937 9.68555 0.0984368C9.47812 0.0351555 8.83828 -0.0140632 8.64844 0.021093ZM9.47109 1.14961C10.5645 1.53281 10.7578 3.03047 9.79453 3.67031C8.76094 4.35586 7.40742 3.49453 7.59727 2.27461C7.68867 1.69101 8.17031 1.1918 8.74336 1.08984C8.94727 1.05469 9.28125 1.0793 9.47109 1.14961ZM13.4051 5.04844C13.8973 5.15742 14.4352 5.5125 14.7023 5.89922C14.843 6.10312 14.9941 6.41602 15.0469 6.60586C15.068 6.68672 15.3949 8.49727 15.7711 10.6277C16.4883 14.6988 16.5059 14.8254 16.4004 15.2402C16.1789 16.1191 15.4758 16.7625 14.5863 16.9066C14.2734 16.9594 3.72656 16.9594 3.41367 16.9066C2.91445 16.8293 2.54531 16.6359 2.17617 16.2703C1.78594 15.8801 1.54687 15.3141 1.54687 14.7656C1.54687 14.5793 1.74375 13.377 2.22891 10.6277C2.60508 8.49727 2.93203 6.68672 2.95312 6.60586C3.1043 6.04687 3.52266 5.53359 4.04648 5.25586C4.56328 4.98164 4.29258 4.99922 8.97539 4.9957C12.6949 4.99219 13.1801 4.99922 13.4051 5.04844Z" fill="#65A39C"/>
<path d="M5.55474 8.76446C5.26294 8.91915 5.27349 8.83478 5.27349 10.9723V12.8566L5.35434 12.9727C5.48091 13.1625 5.59341 13.2258 5.80083 13.2258C5.9977 13.2258 6.10669 13.1695 6.23677 12.9938C6.30356 12.9059 6.31059 12.832 6.32817 12.2274L6.34575 11.5559L7.10161 12.3363C7.51645 12.7688 7.90317 13.1449 7.96294 13.1731C8.20552 13.2996 8.55005 13.1941 8.66255 12.9586C8.73638 12.8004 8.73286 12.5578 8.65552 12.4418C8.62388 12.3926 8.30395 12.0481 7.94536 11.6754C7.58677 11.3063 7.29145 10.9863 7.28442 10.9688C7.27739 10.9512 7.56919 10.6348 7.92778 10.2656C8.28638 9.89298 8.61333 9.54142 8.652 9.48165C8.83481 9.17931 8.64849 8.76095 8.30747 8.69767C8.04028 8.64845 7.96645 8.70118 7.1227 9.57306L6.32817 10.3887V9.74532C6.32817 8.98595 6.29653 8.88399 6.03638 8.75743C5.84302 8.66251 5.74106 8.66602 5.55474 8.76446Z" fill="#65A39C"/>
<path d="M10.6383 8.73984C10.0652 8.87695 9.61523 9.29531 9.41484 9.87539C9.34102 10.0934 9.33398 10.1637 9.33398 10.9512C9.33398 11.6613 9.34453 11.8266 9.39727 11.9953C9.73125 13.0781 10.9406 13.5562 11.9074 12.9902C12.1289 12.8566 12.3961 12.5719 12.5121 12.3434C12.6914 11.9918 12.7336 11.7844 12.7195 11.3273C12.709 10.9687 12.6984 10.9019 12.6316 10.807C12.4875 10.6066 12.368 10.575 11.7598 10.5891C11.2781 10.5996 11.2078 10.6066 11.1234 10.6734C10.8773 10.8562 10.8105 11.0848 10.9301 11.3273C11.0355 11.5418 11.1516 11.6156 11.4152 11.6297C11.6578 11.6473 11.6754 11.6684 11.584 11.8477C11.373 12.2555 10.7262 12.266 10.4941 11.8687C10.4062 11.7211 10.4062 11.7035 10.4062 10.9723C10.4062 10.1355 10.4238 10.0547 10.6383 9.88945C10.916 9.68203 11.2043 9.71367 11.5172 9.98437C11.7281 10.1707 11.8687 10.2199 12.0762 10.1812C12.2379 10.1496 12.4348 9.95273 12.4664 9.79101C12.5086 9.55546 12.4559 9.42539 12.2203 9.19335C11.7914 8.76093 11.2219 8.59921 10.6383 8.73984Z" fill="#65A39C"/>
</svg>
